<svg xmlns="http://www.w3.org/2000/svg" xmlns:xlink="http://www.w3.org/1999/xlink" width="83.514" height="83.28" viewBox="0 0 83.514 83.28">
  <defs>
    <filter id="Ret창ngulo_155" x="0" y="0" width="83.514" height="83.28" filterUnits="userSpaceOnUse">
      <feOffset dy="3" input="SourceAlpha"/>
      <feGaussianBlur stdDeviation="3" result="blur"/>
      <feFlood flood-opacity="0.278"/>
      <feComposite operator="in" in2="blur"/>
      <feComposite in="SourceGraphic"/>
    </filter>
  </defs>
  <g id="Grupo_851" data-name="Grupo 851" transform="translate(9 6)">
    <g id="Grupo_645" data-name="Grupo 645" transform="translate(0)">
      <path id="Caminho_21" data-name="Caminho 21" d="M87.867,157.247a31.492,31.492,0,1,1,31.491,31.491,31.491,31.491,0,0,1-31.491-31.491" transform="translate(-86.603 -124.608)" fill="#16406d"/>
      <g id="Grupo_14" data-name="Grupo 14" transform="translate(42.448 47.767) rotate(180)">
        <path id="Caminho_25" data-name="Caminho 25" d="M16.414.737a2.518,2.518,0,0,0-3.559,0L.738,12.853A2.517,2.517,0,0,0,4.3,16.412L16.414,4.3a2.518,2.518,0,0,0,0-3.559" transform="translate(0 0)" fill="#fff"/>
        <path id="Caminho_26" data-name="Caminho 26" d="M16.309,12.749,4.3.737A2.517,2.517,0,1,0,.738,4.3L12.75,16.308a2.517,2.517,0,1,0,3.559-3.559" transform="translate(0.006 12.091)" fill="#fff"/>
      </g>
      <g transform="matrix(1, 0, 0, 1, -9, -6)" filter="url(#Ret창ngulo_155)">
        <g id="Ret창ngulo_155-2" data-name="Ret창ngulo 155" transform="translate(9 6)" fill="none" stroke="#fff" stroke-width="4">
          <rect width="65.514" height="65.28" rx="32.64" stroke="none"/>
          <rect x="2" y="2" width="61.514" height="61.28" rx="30.64" fill="none"/>
        </g>
      </g>
    </g>
  </g>
</svg>
