<svg xmlns="http://www.w3.org/2000/svg" width="186" height="54" viewBox="0 0 186 54">
  <g id="Grupo_1662" data-name="Grupo 1662" transform="translate(-220 -560)">
    <g id="Retângulo_867" data-name="Retângulo 867" transform="translate(220 560)" fill="#e7ebf0" stroke="#fff" stroke-width="4">
      <rect width="186" height="54" rx="27" stroke="none"/>
      <rect x="2" y="2" width="182" height="50" rx="25" fill="none"/>
    </g>
    <g id="Grupo_1650" data-name="Grupo 1650" transform="translate(250.002 574.554)">
      <path id="Caminho_8" data-name="Caminho 8" d="M20.9,60.978h0a1.741,1.741,0,0,1,1.828-1.636H42.639a1.647,1.647,0,1,1,0,3.273H22.724A1.741,1.741,0,0,1,20.9,60.978" transform="translate(-20.853 -37.66)" fill="#16406d"/>
      <path id="Caminho_9" data-name="Caminho 9" d="M22.509,65.716h0a1.637,1.637,0,0,1-1.636-1.636V57.228a1.636,1.636,0,1,1,3.273,0v6.851a1.637,1.637,0,0,1-1.636,1.636" transform="translate(-20.873 -40.876)" fill="#16406d"/>
      <path id="Caminho_10" data-name="Caminho 10" d="M32.142,65.716h0a1.637,1.637,0,0,1-1.636-1.636V57.228a1.636,1.636,0,1,1,3.273,0v6.851a1.637,1.637,0,0,1-1.636,1.636" transform="translate(-10.163 -40.876)" fill="#16406d"/>
      <g id="Grupo_11" data-name="Grupo 11" transform="translate(5.357 0)">
        <path id="Caminho_11" data-name="Caminho 11" d="M30.833,59.079l-4.844-4.844a1.637,1.637,0,1,0-2.314,2.316l4.844,4.843a1.637,1.637,0,0,0,2.314-2.314" transform="translate(-23.195 -43.676)" fill="#16406d"/>
        <path id="Caminho_12" data-name="Caminho 12" d="M33.432,54.232a1.637,1.637,0,0,0-2.314,0l-4.844,4.844a1.637,1.637,0,1,0,2.314,2.314l4.844-4.844a1.637,1.637,0,0,0,0-2.314" transform="translate(-20.966 -43.678)" fill="#16406d"/>
        <path id="Caminho_13" data-name="Caminho 13" d="M27.42,66.5h0a1.637,1.637,0,0,1-1.636-1.636V49.965a1.636,1.636,0,0,1,3.273,0V64.859A1.637,1.637,0,0,1,27.42,66.5" transform="translate(-20.975 -48.329)" fill="#16406d"/>
      </g>
    </g>
    <path id="Caminho_928" data-name="Caminho 928" d="M23.36,15V1.5h4.62a6.321,6.321,0,0,1,3.69.96,3.015,3.015,0,0,1,1.37,2.6,2.929,2.929,0,0,1-1.78,2.77,3.679,3.679,0,0,1,1.68,1.254A3.212,3.212,0,0,1,33.52,11a3.4,3.4,0,0,1-1.49,2.96A7.371,7.371,0,0,1,27.78,15Zm3.04-2.4h1.54q2.42,0,2.42-1.74a1.358,1.358,0,0,0-.6-1.18,2.9,2.9,0,0,0-1.68-.42H26.4Zm0-5.66h1.58a2.362,2.362,0,0,0,1.47-.42A1.339,1.339,0,0,0,30,5.4a1.332,1.332,0,0,0-.5-1.1,2.223,2.223,0,0,0-1.42-.4H26.4Zm11.7,8.32a3.609,3.609,0,0,1-2.48-.83,2.826,2.826,0,0,1-.94-2.23,3.214,3.214,0,0,1,1.38-2.77,6.612,6.612,0,0,1,3.9-.99q.22,0,.44.01t.44.03q-.2-1.76-2.26-1.76a4.982,4.982,0,0,0-2.96.94V5.28a5.772,5.772,0,0,1,3.46-.98,4.7,4.7,0,0,1,3.44,1.18,4.529,4.529,0,0,1,1.2,3.38V15H41.24l-.16-1.1a3.067,3.067,0,0,1-1.25,1A4.122,4.122,0,0,1,38.1,15.26Zm2.76-4.9q-.3-.02-.76-.02a3.786,3.786,0,0,0-1.89.39,1.222,1.222,0,0,0-.67,1.11,1.252,1.252,0,0,0,.4.98,1.525,1.525,0,0,0,1.06.36,1.763,1.763,0,0,0,1.32-.56,1.912,1.912,0,0,0,.54-1.38ZM45.7,15V4.56h3.04V15ZM47.22,3.34a1.736,1.736,0,0,1-1.25-.49,1.634,1.634,0,0,1-.51-1.23A1.634,1.634,0,0,1,45.97.39a1.852,1.852,0,0,1,2.51,0,1.651,1.651,0,0,1,.5,1.23,1.651,1.651,0,0,1-.5,1.23A1.727,1.727,0,0,1,47.22,3.34ZM49.96,15l3.56-5.38L50.16,4.56h3.46l1.76,3.1,1.72-3.1h3.34L57.06,9.64,60.64,15H57.16l-1.94-3.22L53.28,15Zm14.66.26a3.609,3.609,0,0,1-2.48-.83,2.826,2.826,0,0,1-.94-2.23,3.214,3.214,0,0,1,1.38-2.77,6.612,6.612,0,0,1,3.9-.99q.22,0,.44.01t.44.03q-.2-1.76-2.26-1.76a4.982,4.982,0,0,0-2.96.94V5.28A5.772,5.772,0,0,1,65.6,4.3a4.7,4.7,0,0,1,3.44,1.18,4.529,4.529,0,0,1,1.2,3.38V15H67.76l-.16-1.1a3.067,3.067,0,0,1-1.25,1A4.122,4.122,0,0,1,64.62,15.26Zm2.76-4.9q-.3-.02-.76-.02a3.786,3.786,0,0,0-1.89.39,1.222,1.222,0,0,0-.67,1.11,1.252,1.252,0,0,0,.4.98,1.525,1.525,0,0,0,1.06.36,1.763,1.763,0,0,0,1.32-.56,1.912,1.912,0,0,0,.54-1.38ZM72.22,15V4.56h2.66l.2,1.5a3.277,3.277,0,0,1,1.01-1.24,2.247,2.247,0,0,1,1.35-.46,2,2,0,0,1,.8.14V7.32a1.9,1.9,0,0,0-.86-.18,1.929,1.929,0,0,0-1.55.67,2.766,2.766,0,0,0-.57,1.85V15Z" transform="translate(274 581)" fill="#16406d"/>
  </g>
</svg>
