<svg xmlns="http://www.w3.org/2000/svg" xmlns:xlink="http://www.w3.org/1999/xlink" width="17.619" height="32.069" viewBox="0 0 17.619 32.069">
  <defs>
    <clipPath id="clip-path">
      <path id="Caminho_511" data-name="Caminho 511" d="M0,5.14H17.619V-26.929H0Z" transform="translate(0 26.929)" fill="none"/>
    </clipPath>
  </defs>
  <g id="Grupo_1613" data-name="Grupo 1613" transform="translate(4.39 48.929)">
    <g id="Grupo_856" data-name="Grupo 856" transform="translate(-4.39 -48.929)" clip-path="url(#clip-path)">
      <g id="Grupo_852" data-name="Grupo 852" transform="translate(1.355 4.616)">
        <path id="Caminho_507" data-name="Caminho 507" d="M.571.632A.492.492,0,0,1,.231.494L-2.82-2.359a.574.574,0,0,1-.042-.771.488.488,0,0,1,.72-.045L.91-.32a.557.557,0,0,1,.174.37A.562.562,0,0,1,.96.444.5.5,0,0,1,.571.632" transform="translate(2.99 3.313)" fill="#0e365d"/>
      </g>
      <g id="Grupo_853" data-name="Grupo 853" transform="translate(13.274 4.616)">
        <path id="Caminho_508" data-name="Caminho 508" d="M.082.632A.512.512,0,0,1-.4.282a.568.568,0,0,1,.141-.6L2.794-3.175a.488.488,0,0,1,.72.045.574.574,0,0,1-.042.771L.422.494A.484.484,0,0,1,.082.632" transform="translate(0.431 3.313)" fill="#0e365b"/>
      </g>
      <g id="Grupo_854" data-name="Grupo 854" transform="translate(1.985 9.945)">
        <path id="Caminho_509" data-name="Caminho 509" d="M.821.174a4.255,4.255,0,0,0-4.1,4.386V15.083a4.26,4.26,0,0,0,4.1,4.386H4.574a4.256,4.256,0,0,0,4.116-4.386V4.578a4.544,4.544,0,0,0-1.2-3.115A3.977,3.977,0,0,0,4.574.174ZM4.574,20.555H.821A5.313,5.313,0,0,1-4.3,15.083V4.578A5.315,5.315,0,0,1,.821-.913H4.574A5.31,5.31,0,0,1,9.706,4.56V15.083a5.309,5.309,0,0,1-5.133,5.472" transform="translate(4.301 0.913)" fill="#0e365d"/>
      </g>
      <g id="Grupo_855" data-name="Grupo 855" transform="translate(8.477 15.154)">
        <path id="Caminho_510" data-name="Caminho 510" d="M.082.611A.526.526,0,0,1-.427.068V-2.659A.527.527,0,0,1,.082-3.2a.527.527,0,0,1,.509.544V.068A.526.526,0,0,1,.082.611" transform="translate(0.427 3.203)" fill="#0e365d"/>
      </g>
      <g id="Grupo_1614" data-name="Grupo 1614" transform="matrix(0.695, -0.719, 0.719, 0.695, 6.659, 3.848)">
        <path id="Caminho_508-2" data-name="Caminho 508" d="M.513,3.945a.512.512,0,0,1-.48-.35.568.568,0,0,1,.141-.6L3.225.138a.488.488,0,0,1,.72.045A.574.574,0,0,1,3.9.954L.853,3.807a.484.484,0,0,1-.339.138" transform="translate(0 0)" fill="#0e365b"/>
      </g>
    </g>
  </g>
</svg>
