<svg xmlns="http://www.w3.org/2000/svg" xmlns:xlink="http://www.w3.org/1999/xlink" width="182.981" height="62.969" viewBox="0 0 182.981 62.969">
  <defs>
    <clipPath id="clip-path">
      <rect id="Retângulo_37" data-name="Retângulo 37" width="26.561" height="29.475" fill="none"/>
    </clipPath>
  </defs>
  <g id="Grupo_1659" data-name="Grupo 1659" transform="translate(-134.063 -597)">
    <path id="Caminho_559" data-name="Caminho 559" d="M26.119,0H151.838c14.425,0,26.119,13.425,26.119,29.985s-11.694,29.985-26.119,29.985H26.119C11.694,59.969,0,46.545,0,29.985c0-3.594,1.646-10.5,1.646-10.5S14.824,0,26.119,0Z" transform="translate(135.285 599)" fill="#16406d"/>
    <path id="Caminho_928" data-name="Caminho 928" d="M5.375,0H1.45V-16.875H5.375ZM8.1,0V-13.05h3.325l.2,1.5A4.427,4.427,0,0,1,15.4-13.375a4.134,4.134,0,0,1,3.275,1.4,5.416,5.416,0,0,1,1.225,3.7V0H16.1V-7.675q0-2.55-2.05-2.55a1.944,1.944,0,0,0-1.575.688A2.812,2.812,0,0,0,11.9-7.675V0ZM22.375,0V-13.05h3.8V0Zm1.9-14.575a2.17,2.17,0,0,1-1.563-.613,2.043,2.043,0,0,1-.637-1.538,2.043,2.043,0,0,1,.637-1.538,2.17,2.17,0,0,1,1.563-.613,2.158,2.158,0,0,1,1.575.613,2.064,2.064,0,0,1,.625,1.538,2.064,2.064,0,0,1-.625,1.538A2.158,2.158,0,0,1,24.275-14.575ZM34.75.325A7.059,7.059,0,0,1,31.25-.5a5.686,5.686,0,0,1-2.287-2.363A7.682,7.682,0,0,1,28.15-6.5,7.368,7.368,0,0,1,29-10.1a6.093,6.093,0,0,1,2.363-2.413,6.967,6.967,0,0,1,3.512-.863,6.81,6.81,0,0,1,1.75.225,4.265,4.265,0,0,1,1.35.575V-9.5a4.273,4.273,0,0,0-2.625-.8,3.141,3.141,0,0,0-2.463.988A3.988,3.988,0,0,0,32-6.55a4.022,4.022,0,0,0,.913,2.775A3.131,3.131,0,0,0,35.375-2.75a4.3,4.3,0,0,0,2.75-.85V-.55a4.34,4.34,0,0,1-1.45.638A7.52,7.52,0,0,1,34.75.325ZM40.45,0V-13.05h3.8V0Zm1.9-14.575a2.17,2.17,0,0,1-1.562-.613,2.043,2.043,0,0,1-.638-1.538,2.043,2.043,0,0,1,.638-1.538,2.17,2.17,0,0,1,1.563-.613,2.158,2.158,0,0,1,1.575.613,2.064,2.064,0,0,1,.625,1.538,2.064,2.064,0,0,1-.625,1.538A2.158,2.158,0,0,1,42.35-14.575ZM50.5.325A4.512,4.512,0,0,1,47.4-.713,3.532,3.532,0,0,1,46.225-3.5,4.018,4.018,0,0,1,47.95-6.963,8.265,8.265,0,0,1,52.825-8.2q.275,0,.55.012t.55.037q-.25-2.2-2.825-2.2a6.227,6.227,0,0,0-3.7,1.175V-12.15a7.215,7.215,0,0,1,4.325-1.225,5.878,5.878,0,0,1,4.3,1.475,5.661,5.661,0,0,1,1.5,4.225V0h-3.1l-.2-1.375a3.834,3.834,0,0,1-1.562,1.25A5.153,5.153,0,0,1,50.5.325ZM53.95-5.8q-.375-.025-.95-.025a4.733,4.733,0,0,0-2.362.488A1.527,1.527,0,0,0,49.8-3.95a1.565,1.565,0,0,0,.5,1.225,1.906,1.906,0,0,0,1.325.45,2.2,2.2,0,0,0,1.65-.7A2.39,2.39,0,0,0,53.95-4.7ZM60,0V-13.05h3.325l.25,1.875a4.1,4.1,0,0,1,1.262-1.55,2.809,2.809,0,0,1,1.688-.575,2.5,2.5,0,0,1,1,.175V-9.6a2.38,2.38,0,0,0-1.075-.225,2.411,2.411,0,0,0-1.937.837A3.458,3.458,0,0,0,63.8-6.675V0Z" transform="translate(211.777 637.475)" fill="#fff"/>
    <g id="Grupo_6" data-name="Grupo 6" transform="translate(169.332 614)">
      <g id="Grupo_6-2" data-name="Grupo 6" transform="translate(0 0)" clip-path="url(#clip-path)">
        <path id="Caminho_32" data-name="Caminho 32" d="M24.612,11.358,5.853.529A3.9,3.9,0,0,0,0,3.906V25.569a3.9,3.9,0,0,0,5.853,3.378l18.759-10.83a3.9,3.9,0,0,0,0-6.758" transform="translate(0 -0.001)" fill="#f4f4f4"/>
      </g>
    </g>
    <g id="Caminho_927" data-name="Caminho 927" transform="translate(134.063 597)" fill="none">
      <path d="M31.485,0H151.5a31.485,31.485,0,1,1,0,62.969H31.485A31.485,31.485,0,0,1,31.485,0Z" stroke="none"/>
      <path d="M 31.48469543457031 4 C 27.77253723144531 4 24.17352294921875 4.726131439208984 20.78764343261719 6.158237457275391 C 17.51527404785156 7.542343139648438 14.57551574707031 9.524658203125 12.05009460449219 12.05007934570312 C 9.524642944335938 14.57552719116211 7.542327880859375 17.51526260375977 6.158233642578125 20.78765869140625 C 4.726119995117188 24.17352676391602 3.999984741210938 27.77252578735352 3.999984741210938 31.48471069335938 C 3.999984741210938 35.19689559936523 4.726119995117188 38.79589462280273 6.158233642578125 42.1817626953125 C 7.542327880859375 45.45415878295898 9.524642944335938 48.39389419555664 12.05009460449219 50.91934204101562 C 14.57551574707031 53.44476318359375 17.51527404785156 55.42707824707031 20.78764343261719 56.81118392944336 C 24.17352294921875 58.24328994750977 27.77253723144531 58.96942138671875 31.48469543457031 58.96942138671875 L 151.4962005615234 58.96942138671875 C 155.2083892822266 58.96942138671875 158.8073883056641 58.24328994750977 162.1932525634766 56.81118392944336 C 165.4656524658203 55.42707824707031 168.4053802490234 53.44476318359375 170.9308319091797 50.91934204101562 C 173.4562530517578 48.39389419555664 175.4385681152344 45.45415878295898 176.8226776123047 42.1817626953125 C 178.2547760009766 38.79589462280273 178.9809112548828 35.19689559936523 178.9809112548828 31.48471069335938 C 178.9809112548828 27.77252578735352 178.2547760009766 24.17352676391602 176.8226776123047 20.78765869140625 C 175.4385681152344 17.51526260375977 173.4562530517578 14.57552719116211 170.9308319091797 12.05007934570312 C 168.4053802490234 9.524658203125 165.4656524658203 7.542343139648438 162.1932525634766 6.158237457275391 C 158.8073883056641 4.726131439208984 155.2083892822266 4 151.4962005615234 4 L 31.48469543457031 4 M 31.48469543457031 0 L 151.4962005615234 0 C 168.8847198486328 0 182.9809112548828 14.09618377685547 182.9809112548828 31.48471069335938 C 182.9809112548828 48.87323760986328 168.8847198486328 62.96942138671875 151.4962005615234 62.96942138671875 L 31.48469543457031 62.96942138671875 C 14.09620666503906 62.96942138671875 -1.52587890625e-05 48.87323760986328 -1.52587890625e-05 31.48471069335938 C -1.52587890625e-05 14.09618377685547 14.09620666503906 0 31.48469543457031 0 Z" stroke="none" fill="#fff"/>
    </g>
  </g>
</svg>
