<svg id="Fit_escola_color" xmlns="http://www.w3.org/2000/svg" xmlns:xlink="http://www.w3.org/1999/xlink" width="259.874" height="94.458" viewBox="0 0 259.874 94.458">
  <defs>
    <linearGradient id="linear-gradient" x1="0.5" x2="0.5" y2="1" gradientUnits="objectBoundingBox">
      <stop offset="0" stop-color="#ed770c"/>
      <stop offset="1" stop-color="#f09440"/>
    </linearGradient>
  </defs>
  <g id="Layer_1" transform="translate(0 0)">
    <g id="Grupo_1533" data-name="Grupo 1533">
      <g id="Grupo_1532" data-name="Grupo 1532" transform="translate(0 0.325)">
        <g id="Grupo_1530" data-name="Grupo 1530">
          <path id="Caminho_787" data-name="Caminho 787" d="M135.223,54.768c.052,0,8.83-.065,13.956.916a7.58,7.58,0,0,1,6.77,5.828c1.806,5.646,3.47,14.743,4.2,24.469.02.279.052.65.065.929h13.475c-.1-13.047-1.442-25.366-3.288-33.117-.962-4.613-3.652-7.7-8.862-8.862a123.67,123.67,0,0,0-21.415-2.891c-.032,0-2.605-.13-2.657-.13L135.21,54.775Z" transform="translate(-80.061 -41.598)" fill="#4dafff"/>
          <path id="Caminho_788" data-name="Caminho 788" d="M63.935,91.693h0c-.033-.318-.052-.617-.065-.929-.728-9.707-.468-18.94.481-24.8a7.573,7.573,0,0,1,5.828-6.77c5.906-1.956,14.755-3.45,24.469-4.184,2.027-.149,4.015-.266,5.906-.351l2.294-13.144c-1.858-.052-3.749-.084-5.711-.084-13.677,0-26.191,1.163-34.676,3.268-5.2,1.163-7.9,4.23-8.862,8.862-1.923,8.115-3.268,21.032-3.268,34.709,0,1.943.084,5.776.084,5.776h0l13.527-2.359Z" transform="translate(-50.33 -41.43)" fill="#0e295b"/>
          <path id="Caminho_789" data-name="Caminho 789" d="M92.516,151.6a93.854,93.854,0,0,1-17.543-.845,7.58,7.58,0,0,1-6.77-5.828,100.594,100.594,0,0,1-3.6-18.673L50.81,128.673a149.911,149.911,0,0,0,2.969,23.988c.962,4.613,3.652,7.7,8.862,8.862,7.452,1.858,18.141,2.989,29.894,3.223l-.02-13.144h0Z" transform="translate(-50.498 -71.14)" fill="url(#linear-gradient)"/>
          <g id="Grupo_1528" data-name="Grupo 1528" transform="translate(46.358 67.728)">
            <path id="Caminho_790" data-name="Caminho 790" d="M127.636,172.1l.019-18.024H122.38l-.02,18.024Zm4.581-13.878v7.719c0,4.379,2.294,6.575,6.354,6.575a12.754,12.754,0,0,0,3.268-.351v-4.035a8.224,8.224,0,0,1-1.878.2c-1.7,0-2.475-.832-2.456-2.742v-7.368h4.581v-4.1h-4.581v-5.458l-5.276.929V154.1h-2.638v4.1l2.625.019Zm17.777,14.346a5.547,5.547,0,0,0,4.73-2.326l.065,1.878h4.931V161.524c0-5.146-2.872-7.881-8.018-7.881a19.236,19.236,0,0,0-6.952,1.208v4.23a17.389,17.389,0,0,1,6.107-1.28c2.423,0,3.781,1.111,3.781,3.054-.416-.032-1.111-.065-1.774-.065-5.562,0-9.064,2.294-9.064,6.2.019,3.4,2.4,5.562,6.192,5.562Zm3.392-8.5c.416,0,1.079.032,1.325.065v1.429a3.031,3.031,0,0,1-3.138,3.223c-1.624,0-2.638-.728-2.638-2.19,0-1.657,1.592-2.521,4.451-2.521Zm15.022,8.511a5.58,5.58,0,0,0,4.867-2.391l.065,1.943H178.4l.02-18.024h-5.276v10.623c0,2.19-1.079,3.567-2.852,3.567s-2.67-1.176-2.67-3.372V154.085h-5.276v11.7c0,4.152,2.371,6.79,6.075,6.79Zm6.653-20.9V147.1l-8.778,1.559v3.021Z" transform="translate(-121.918 -146.171)" fill="#0e295b"/>
            <path id="Caminho_791" data-name="Caminho 791" d="M124.779,151.713a2.963,2.963,0,0,0,3.138-3.021,3.12,3.12,0,1,0-3.132,3.021Z" transform="translate(-121.68 -145.67)" fill="#0e295b"/>
          </g>
          <g id="Grupo_1529" data-name="Grupo 1529" transform="translate(20.96 50.153)">
            <path id="Caminho_792" data-name="Caminho 792" d="M119.844,124.59a3.184,3.184,0,0,0-2.742,1.325l-.032-1.079H114.23v10.045H117.2v-5.906c0-1.209.6-1.995,1.592-1.995s1.494.663,1.494,1.878V134.9h2.969v-6.523c-.019-2.307-1.345-3.781-3.418-3.781Z" transform="translate(-93.672 -120.711)" fill="#0e295b"/>
            <path id="Caminho_793" data-name="Caminho 793" d="M100.671,135.281a3.141,3.141,0,0,0,2.722-1.325l.033,1.079h2.839l.019-10.045h-2.969V130.9c0,1.208-.6,1.995-1.592,1.995s-1.494-.663-1.494-1.878V124.97H97.26v6.523c.019,2.326,1.325,3.781,3.418,3.781Z" transform="translate(-87.728 -120.844)" fill="#0e295b"/>
            <path id="Caminho_794" data-name="Caminho 794" d="M85.559,133.462H82.59V120.48h8.369v2.508H85.566v3H90V128.5H85.579v4.964h-.019Z" transform="translate(-82.59 -119.272)" fill="#0e295b"/>
            <path id="Caminho_795" data-name="Caminho 795" d="M134.832,133.236a3.812,3.812,0,0,1-2.177-.63,4.113,4.113,0,0,1-1.462-1.806,7.777,7.777,0,0,1,.02-5.607,4.331,4.331,0,0,1,1.475-1.845,3.66,3.66,0,0,1,2.19-.65,3.3,3.3,0,0,1,2.605,1.131v-4.7h2.956v13.846h-2.69l-.032-1.209a2.948,2.948,0,0,1-1.176,1.079,3.593,3.593,0,0,1-1.709.4Zm.767-2.359a1.611,1.611,0,0,0,1.429-.767,3.671,3.671,0,0,0,.513-2.125,3.867,3.867,0,0,0-.513-2.157,1.716,1.716,0,0,0-2.859,0,3.713,3.713,0,0,0-.513,2.125,3.867,3.867,0,0,0,.513,2.157A1.677,1.677,0,0,0,135.6,130.877Z" transform="translate(-99.434 -118.799)" fill="#0e295b"/>
            <path id="Caminho_796" data-name="Caminho 796" d="M168.776,135.148a5.636,5.636,0,0,1-2.722-.63,4.26,4.26,0,0,1-1.774-1.826,5.982,5.982,0,0,1-.63-2.807,5.5,5.5,0,0,1,.663-2.774,4.78,4.78,0,0,1,1.826-1.858,5.383,5.383,0,0,1,2.722-.663,5.885,5.885,0,0,1,1.358.169,3.281,3.281,0,0,1,1.046.448v2.359a3.308,3.308,0,0,0-2.04-.617,2.423,2.423,0,0,0-1.91.767,2.987,2.987,0,0,0-.682,2.125,3.044,3.044,0,0,0,.715,2.144,2.421,2.421,0,0,0,1.91.8,3.41,3.41,0,0,0,2.144-.65v2.339a3.756,3.756,0,0,1-1.131.5,5.544,5.544,0,0,1-1.494.182Zm-1.228-.435h1.624l-.364,1.261a2.294,2.294,0,0,1,1.462.6,1.683,1.683,0,0,1,.546,1.26,1.879,1.879,0,0,1-.78,1.592,3.682,3.682,0,0,1-2.222.565,5.715,5.715,0,0,1-1.26-.169v-1.462a2.673,2.673,0,0,0,.546.1,4.482,4.482,0,0,0,.468.033c.747,0,1.131-.234,1.131-.715,0-.429-.4-.65-1.176-.65h-.6l.63-2.423Z" transform="translate(-110.983 -120.711)" fill="#0e295b"/>
            <path id="Caminho_797" data-name="Caminho 797" d="M184.452,121.557a2.053,2.053,0,0,1-1.059-.266c-.312-.182-.578-.351-.832-.513a1.317,1.317,0,0,0-.682-.266c-.364,0-.546.279-.546.845v.149H179.56v-.149a3.251,3.251,0,0,1,.546-2.04,1.86,1.86,0,0,1,1.579-.7,2.005,2.005,0,0,1,1.059.266c.292.182.578.351.832.513a1.211,1.211,0,0,0,.663.266c.364,0,.546-.279.546-.845v-.149h1.806v.149a3.25,3.25,0,0,1-.546,2.04A1.918,1.918,0,0,1,184.452,121.557Z" transform="translate(-116.555 -118.62)" fill="#0e295b"/>
            <path id="Caminho_798" data-name="Caminho 798" d="M198.361,135.162a5.069,5.069,0,0,1-2.605-.65,4.334,4.334,0,0,1-1.709-1.826,6.066,6.066,0,0,1-.617-2.774,5.917,5.917,0,0,1,.617-2.787,4.434,4.434,0,0,1,1.728-1.845,5.523,5.523,0,0,1,5.2,0,4.333,4.333,0,0,1,1.709,1.826,6.067,6.067,0,0,1,.617,2.774,5.918,5.918,0,0,1-.617,2.787,4.518,4.518,0,0,1-1.709,1.845,5.134,5.134,0,0,1-2.605.65Zm0-2.359a1.611,1.611,0,0,0,1.429-.767,3.67,3.67,0,0,0,.513-2.125,3.866,3.866,0,0,0-.513-2.157,1.716,1.716,0,0,0-2.859,0,3.712,3.712,0,0,0-.513,2.125,3.866,3.866,0,0,0,.513,2.157A1.63,1.63,0,0,0,198.361,132.8Z" transform="translate(-121.413 -120.725)" fill="#0e295b"/>
            <path id="Caminho_799" data-name="Caminho 799" d="M181.845,124.62a10.737,10.737,0,0,0-3.9.682v2.359a9.718,9.718,0,0,1,3.437-.715c1.358,0,2.125.617,2.125,1.709-.234-.019-.63-.033-.994-.033-3.119,0-5.094,1.28-5.094,3.45,0,1.891,1.345,3.086,3.47,3.106a3.14,3.14,0,0,0,2.657-1.293l.033,1.046h2.774v-5.893c0-2.872-1.611-4.418-4.5-4.418Zm1.676,6.64a1.7,1.7,0,0,1-1.761,1.793c-.916,0-1.475-.416-1.475-1.228,0-.929.9-1.41,2.489-1.41.234,0,.6.02.747.032Z" transform="translate(-115.806 -120.722)" fill="#0e295b"/>
            <path id="Caminho_800" data-name="Caminho 800" d="M152.085,124.62a10.737,10.737,0,0,0-3.9.682v2.359a9.718,9.718,0,0,1,3.437-.715c1.358,0,2.125.617,2.125,1.709-.234-.019-.63-.033-.994-.033-3.119,0-5.094,1.28-5.094,3.45,0,1.891,1.345,3.086,3.47,3.106a3.14,3.14,0,0,0,2.657-1.293l.032,1.046h2.774v-5.893c0-2.872-1.611-4.418-4.5-4.418Zm1.676,6.64A1.7,1.7,0,0,1,152,133.054c-.916,0-1.475-.416-1.475-1.228,0-.929.9-1.41,2.489-1.41.234,0,.6.02.747.032Z" transform="translate(-105.382 -120.722)" fill="#0e295b"/>
          </g>
        </g>
        <g id="Grupo_1531" data-name="Grupo 1531" transform="translate(166.936 39.712)">
          <path id="Caminho_801" data-name="Caminho 801" d="M322.594,128.132H307.26v-23.2h14.989v4.47h-9.726v4.743h8.011v4.47h-8.011v5.055h10.071v4.47Z" transform="translate(-307.26 -103.384)"/>
          <path id="Caminho_802" data-name="Caminho 802" d="M340.914,131.172a14.823,14.823,0,0,1-3.2-.344,9.91,9.91,0,0,1-2.716-.994v-4.093a9.495,9.495,0,0,0,2.56,1.1,10.6,10.6,0,0,0,2.8.377q2.748,0,2.748-1.683a1.318,1.318,0,0,0-.7-1.137,11.1,11.1,0,0,0-2.735-.994q-4.746-1.345-4.743-5.432a4.868,4.868,0,0,1,2.079-4.093,9.066,9.066,0,0,1,5.549-1.546,11.9,11.9,0,0,1,2.528.273,7.683,7.683,0,0,1,2.111.754v4.022a9.531,9.531,0,0,0-4.5-1.1c-1.767,0-2.644.513-2.644,1.546a1.215,1.215,0,0,0,.656,1.066,11.409,11.409,0,0,0,2.612.962,7.777,7.777,0,0,1,3.853,2.079,5.122,5.122,0,0,1,1.2,3.522,4.986,4.986,0,0,1-1.995,4.158,8.7,8.7,0,0,1-5.464,1.546Z" transform="translate(-316.952 -105.976)"/>
          <path id="Caminho_803" data-name="Caminho 803" d="M368.027,131.169a9.665,9.665,0,0,1-4.815-1.137,7.779,7.779,0,0,1-3.145-3.249,10.53,10.53,0,0,1-1.118-5,10,10,0,0,1,1.17-4.951,8.406,8.406,0,0,1,3.249-3.32,9.549,9.549,0,0,1,4.828-1.189,9.278,9.278,0,0,1,2.4.312,5.844,5.844,0,0,1,1.858.793v4.23a5.878,5.878,0,0,0-3.612-1.1,4.353,4.353,0,0,0-3.385,1.358,6.475,6.475,0,0,0,.032,7.615,4.3,4.3,0,0,0,3.385,1.41,5.917,5.917,0,0,0,3.781-1.17v4.191a6.12,6.12,0,0,1-1.995.877,10.493,10.493,0,0,1-2.645.325Z" transform="translate(-325.365 -105.972)"/>
          <path id="Caminho_804" data-name="Caminho 804" d="M391.862,131.176a8.929,8.929,0,0,1-4.607-1.15,7.828,7.828,0,0,1-3.041-3.268,10.771,10.771,0,0,1-1.085-4.964,10.892,10.892,0,0,1,1.085-4.983,7.875,7.875,0,0,1,3.06-3.3,8.84,8.84,0,0,1,4.587-1.169,9,9,0,0,1,4.607,1.15,7.828,7.828,0,0,1,3.041,3.268,10.772,10.772,0,0,1,1.085,4.964,10.893,10.893,0,0,1-1.085,4.983,7.914,7.914,0,0,1-3.041,3.3A8.811,8.811,0,0,1,391.862,131.176Zm0-4.23a2.889,2.889,0,0,0,2.527-1.358,6.791,6.791,0,0,0,.91-3.8,7.025,7.025,0,0,0-.91-3.853,3.019,3.019,0,0,0-5.055-.02,6.738,6.738,0,0,0-.91,3.8,7.025,7.025,0,0,0,.91,3.853,2.871,2.871,0,0,0,2.527,1.377Z" transform="translate(-333.835 -105.979)"/>
          <path id="Caminho_805" data-name="Caminho 805" d="M414.18,127.3V102.55H419.4V127.3Z" transform="translate(-344.71 -102.55)"/>
          <path id="Caminho_806" data-name="Caminho 806" d="M432.28,131.172a6.183,6.183,0,0,1-4.262-1.429,4.85,4.85,0,0,1-1.618-3.833,5.535,5.535,0,0,1,2.372-4.763,11.338,11.338,0,0,1,6.705-1.7c.253,0,.507,0,.754.02s.507.026.754.052c-.227-2.014-1.527-3.028-3.885-3.028a8.56,8.56,0,0,0-5.087,1.618v-4.093a9.913,9.913,0,0,1,5.945-1.683,8.089,8.089,0,0,1,5.913,2.027,7.77,7.77,0,0,1,2.06,5.809v10.552h-4.262l-.273-1.891a5.272,5.272,0,0,1-2.151,1.722,7.133,7.133,0,0,1-2.976.617Zm4.743-8.427c-.344-.02-.78-.032-1.306-.032a6.494,6.494,0,0,0-3.249.669,2.106,2.106,0,0,0-1.15,1.91,2.138,2.138,0,0,0,.689,1.683,2.626,2.626,0,0,0,1.819.617,3.015,3.015,0,0,0,2.267-.962,3.29,3.29,0,0,0,.929-2.371Z" transform="translate(-348.991 -105.976)"/>
        </g>
      </g>
      <rect id="Retângulo_860" data-name="Retângulo 860" width="1.403" height="94.4" transform="translate(134.313)"/>
    </g>
  </g>
</svg>
