<svg xmlns="http://www.w3.org/2000/svg" width="334.13" height="80.666" viewBox="0 0 334.13 80.666">
  <g id="Grupo_859" data-name="Grupo 859" transform="translate(-3605.286 429.752)">
    <g id="Grupo_3" data-name="Grupo 3" transform="translate(3605.286 -429.752)">
      <rect id="Ret창ngulo_343" data-name="Ret창ngulo 343" width="329.006" height="74.261" rx="37.13" transform="translate(2.562 3.843)" fill="#E7EBF0"/>
      <g id="Ret창ngulo_346" data-name="Ret창ngulo 346" transform="translate(0 0)" fill="none" stroke="#fff" stroke-width="4">
        <rect width="334.13" height="80.666" rx="40.333" stroke="none"/>
        <rect x="2" y="2" width="330.13" height="76.666" rx="38.333" fill="none"/>
      </g>
    </g>
    <path id="Caminho_807" data-name="Caminho 807" d="M19.594-22.406,11.3,0H8.406L.281-22.406H3.2l6.2,17.766a10.548,10.548,0,0,1,.453,1.984h.063a9.733,9.733,0,0,1,.516-2.016l6.328-17.734Zm3.9,2.344a1.624,1.624,0,0,1-1.172-.469,1.582,1.582,0,0,1-.484-1.187,1.608,1.608,0,0,1,.484-1.2,1.61,1.61,0,0,1,1.172-.477,1.655,1.655,0,0,1,1.2.477,1.6,1.6,0,0,1,.492,1.2,1.584,1.584,0,0,1-.492,1.172A1.641,1.641,0,0,1,23.493-20.062ZM24.743,0H22.181V-16h2.563Zm3.931-.578v-2.75a7.583,7.583,0,0,0,4.609,1.547q3.375,0,3.375-2.25a1.952,1.952,0,0,0-.289-1.086,2.881,2.881,0,0,0-.781-.789,6.014,6.014,0,0,0-1.156-.617Q33.768-6.8,33-7.094a18.413,18.413,0,0,1-1.867-.852,5.641,5.641,0,0,1-1.344-.969,3.6,3.6,0,0,1-.812-1.227,4.339,4.339,0,0,1-.273-1.609,3.823,3.823,0,0,1,.516-1.992A4.572,4.572,0,0,1,30.6-15.2a6.412,6.412,0,0,1,1.961-.883,8.7,8.7,0,0,1,2.273-.3,9.18,9.18,0,0,1,3.719.719v2.594a7.247,7.247,0,0,0-4.062-1.156,4.749,4.749,0,0,0-1.3.164,3.175,3.175,0,0,0-.992.461,2.129,2.129,0,0,0-.641.711,1.873,1.873,0,0,0-.227.914,2.192,2.192,0,0,0,.227,1.047,2.3,2.3,0,0,0,.664.75,5.076,5.076,0,0,0,1.063.594q.625.266,1.422.578a19.789,19.789,0,0,1,1.906.836,6.538,6.538,0,0,1,1.438.969,3.785,3.785,0,0,1,.914,1.242,4.006,4.006,0,0,1,.32,1.672,3.942,3.942,0,0,1-.523,2.063,4.486,4.486,0,0,1-1.4,1.453,6.405,6.405,0,0,1-2.016.859,9.952,9.952,0,0,1-2.391.281A9.078,9.078,0,0,1,28.674-.578ZM55.87,0H53.308V-2.531h-.062A5.262,5.262,0,0,1,48.308.375q-5.719,0-5.719-6.812V-16h2.547v9.156q0,5.063,3.875,5.063A3.92,3.92,0,0,0,52.1-3.164a5.291,5.291,0,0,0,1.211-3.617V-16H55.87ZM72.207,0H69.645V-2.5h-.062A5.365,5.365,0,0,1,64.66.375,5.26,5.26,0,0,1,60.918-.891,4.385,4.385,0,0,1,59.567-4.25q0-4.484,5.281-5.219l4.8-.672q0-4.078-3.3-4.078a7.877,7.877,0,0,0-5.219,1.969v-2.625a9.915,9.915,0,0,1,5.437-1.5q5.641,0,5.641,5.969ZM69.645-8.094l-3.859.531A6.266,6.266,0,0,0,63.1-6.68a2.546,2.546,0,0,0-.906,2.242,2.442,2.442,0,0,0,.836,1.914,3.23,3.23,0,0,0,2.227.742A4.113,4.113,0,0,0,68.4-3.117,4.773,4.773,0,0,0,69.645-6.5ZM79.31,0H76.747V-23.687H79.31Zm6.212-20.062a1.624,1.624,0,0,1-1.172-.469,1.582,1.582,0,0,1-.484-1.187,1.608,1.608,0,0,1,.484-1.2,1.61,1.61,0,0,1,1.172-.477,1.655,1.655,0,0,1,1.2.477,1.6,1.6,0,0,1,.492,1.2,1.584,1.584,0,0,1-.492,1.172A1.641,1.641,0,0,1,85.522-20.062ZM86.772,0H84.209V-16h2.563Zm16.056-15.266L93.359-2.187h9.375V0H89.593V-.8l9.469-13.016H90.484V-16h12.344ZM117.305,0h-2.562V-2.5h-.062A5.365,5.365,0,0,1,109.758.375a5.26,5.26,0,0,1-3.742-1.266,4.385,4.385,0,0,1-1.352-3.359q0-4.484,5.281-5.219l4.8-.672q0-4.078-3.3-4.078a7.877,7.877,0,0,0-5.219,1.969v-2.625a9.915,9.915,0,0,1,5.438-1.5q5.641,0,5.641,5.969Zm-2.562-8.094-3.859.531a6.266,6.266,0,0,0-2.687.883,2.546,2.546,0,0,0-.906,2.242,2.442,2.442,0,0,0,.836,1.914,3.23,3.23,0,0,0,2.227.742A4.113,4.113,0,0,0,113.5-3.117,4.773,4.773,0,0,0,114.743-6.5Zm15.446-5.312a3.133,3.133,0,0,0-1.937-.516,3.27,3.27,0,0,0-2.742,1.547,7.152,7.152,0,0,0-1.1,4.219V0h-2.562V-16h2.563v3.3h.063a5.587,5.587,0,0,1,1.672-2.633,3.812,3.812,0,0,1,2.516-.945,4.183,4.183,0,0,1,1.531.219ZM147.848.375a7.422,7.422,0,0,1-5.664-2.242,8.305,8.305,0,0,1-2.117-5.945,8.652,8.652,0,0,1,2.2-6.3,7.92,7.92,0,0,1,5.953-2.266,7.176,7.176,0,0,1,5.586,2.2,8.735,8.735,0,0,1,2.008,6.109,8.6,8.6,0,0,1-2.164,6.133A7.583,7.583,0,0,1,147.848.375Zm.188-14.594a4.874,4.874,0,0,0-3.906,1.68,6.9,6.9,0,0,0-1.437,4.633,6.524,6.524,0,0,0,1.453,4.484,4.939,4.939,0,0,0,3.891,1.641,4.685,4.685,0,0,0,3.82-1.609,6.984,6.984,0,0,0,1.336-4.578,7.1,7.1,0,0,0-1.336-4.625A4.664,4.664,0,0,0,148.035-14.219ZM162.247-2.312h-.062V0h-2.562V-23.687h2.563v10.5h.063a6.059,6.059,0,0,1,5.531-3.187,5.864,5.864,0,0,1,4.82,2.148,8.871,8.871,0,0,1,1.742,5.758,9.917,9.917,0,0,1-1.953,6.43A6.5,6.5,0,0,1,167.044.375,5.263,5.263,0,0,1,162.247-2.312Zm-.062-6.453v2.234a4.757,4.757,0,0,0,1.289,3.367,4.28,4.28,0,0,0,3.273,1.383A4.289,4.289,0,0,0,170.4-3.562a8.172,8.172,0,0,0,1.32-4.953,6.451,6.451,0,0,0-1.234-4.187,4.085,4.085,0,0,0-3.344-1.516,4.54,4.54,0,0,0-3.594,1.555A5.708,5.708,0,0,0,162.185-8.766Zm24.306-4.641a3.133,3.133,0,0,0-1.937-.516,3.27,3.27,0,0,0-2.742,1.547,7.152,7.152,0,0,0-1.1,4.219V0h-2.562V-16h2.563v3.3h.063a5.587,5.587,0,0,1,1.672-2.633,3.812,3.812,0,0,1,2.516-.945,4.183,4.183,0,0,1,1.531.219ZM200.437,0h-2.562V-2.5h-.062A5.365,5.365,0,0,1,192.89.375a5.26,5.26,0,0,1-3.742-1.266A4.385,4.385,0,0,1,187.8-4.25q0-4.484,5.281-5.219l4.8-.672q0-4.078-3.3-4.078a7.877,7.877,0,0,0-5.219,1.969v-2.625a9.915,9.915,0,0,1,5.438-1.5q5.641,0,5.641,5.969Zm-2.562-8.094-3.859.531a6.266,6.266,0,0,0-2.687.883,2.546,2.546,0,0,0-.906,2.242,2.442,2.442,0,0,0,.836,1.914,3.23,3.23,0,0,0,2.227.742,4.113,4.113,0,0,0,3.148-1.336A4.773,4.773,0,0,0,197.874-6.5Z" transform="translate(3700.555 -379.87)" fill="#16406D"/>
    <g id="Grupo_24" data-name="Grupo 24" transform="translate(3644.749 -409.019)">
      <path id="Caminho_5" data-name="Caminho 5" d="M30.232,51.58h0a3.043,3.043,0,0,1-3.043-3.043V15.424a3.043,3.043,0,0,1,6.086,0V48.538a3.043,3.043,0,0,1-3.043,3.043" transform="translate(-10.634 -12.381)" fill="#16406D"/>
      <path id="Caminho_6" data-name="Caminho 6" d="M22.042,20.571h0a3.043,3.043,0,0,1,3.043-3.043H58.2a3.043,3.043,0,1,1,0,6.086H25.085a3.043,3.043,0,0,1-3.043-3.043" transform="translate(-22.042 -0.973)" fill="#16406D"/>
    </g>
  </g>
</svg>
