<svg xmlns="http://www.w3.org/2000/svg" xmlns:xlink="http://www.w3.org/1999/xlink" width="254.93" height="43.648" viewBox="0 0 254.93 43.648">
  <defs>
    <clipPath id="clip-path">
      <rect id="Retângulo_984" data-name="Retângulo 984" width="48.752" height="43.648" transform="translate(0 0)" fill="none"/>
    </clipPath>
  </defs>
  <g id="Grupo_1641" data-name="Grupo 1641" transform="translate(-1327 -3246)">
    <path id="Espaço_para_legenda_das_fotos_" data-name="Espaço para legenda das fotos " d="M12.48,0H7.35Q5.31-4.77,3.585-9.825T.45-20.25H5.49q.96,4.17,2.055,7.95T9.96-4.95q1.44-3.84,2.46-7.515T14.4-20.25h4.95q-1.29,4.98-3,10.035T12.48,0Zm8.85,0V-15.66h4.56V0Zm2.28-17.49a2.6,2.6,0,0,1-1.875-.735,2.452,2.452,0,0,1-.765-1.845,2.452,2.452,0,0,1,.765-1.845,2.6,2.6,0,0,1,1.875-.735,2.59,2.59,0,0,1,1.89.735,2.476,2.476,0,0,1,.75,1.845,2.476,2.476,0,0,1-.75,1.845A2.59,2.59,0,0,1,23.61-17.49ZM33.51.39a12.824,12.824,0,0,1-2.79-.3,8.709,8.709,0,0,1-2.37-.87V-4.35a8.433,8.433,0,0,0,2.235.96,9.29,9.29,0,0,0,2.445.33q2.4,0,2.4-1.47a1.148,1.148,0,0,0-.615-.99,9.9,9.9,0,0,0-2.385-.87q-4.14-1.17-4.14-4.74A4.237,4.237,0,0,1,30.1-14.7a7.932,7.932,0,0,1,4.845-1.35,10.27,10.27,0,0,1,2.205.24A6.725,6.725,0,0,1,39-15.15v3.51a8.335,8.335,0,0,0-3.93-.96q-2.31,0-2.31,1.35a1.071,1.071,0,0,0,.57.93,9.977,9.977,0,0,0,2.28.84,6.764,6.764,0,0,1,3.36,1.815A4.464,4.464,0,0,1,40.02-4.59,4.357,4.357,0,0,1,38.28-.96,7.6,7.6,0,0,1,33.51.39Zm13.98,0a4.8,4.8,0,0,1-3.84-1.68A6.54,6.54,0,0,1,42.21-5.7v-9.96h4.56v9.21a3.759,3.759,0,0,0,.615,2.31,2.072,2.072,0,0,0,1.755.81,2.224,2.224,0,0,0,1.815-.825A3.476,3.476,0,0,0,51.63-6.42v-9.24h4.56V0H52.2l-.24-1.71A5.282,5.282,0,0,1,47.49.39Zm16.2,0A5.414,5.414,0,0,1,59.97-.855,4.239,4.239,0,0,1,58.56-4.2a4.822,4.822,0,0,1,2.07-4.155A9.918,9.918,0,0,1,66.48-9.84q.33,0,.66.015t.66.045q-.3-2.64-3.39-2.64a7.473,7.473,0,0,0-4.44,1.41v-3.57a8.658,8.658,0,0,1,5.19-1.47,7.054,7.054,0,0,1,5.16,1.77,6.793,6.793,0,0,1,1.8,5.07V0H68.4l-.24-1.65a4.6,4.6,0,0,1-1.875,1.5A6.184,6.184,0,0,1,63.69.39Zm4.14-7.35q-.45-.03-1.14-.03a5.679,5.679,0,0,0-2.835.585A1.833,1.833,0,0,0,62.85-4.74a1.878,1.878,0,0,0,.6,1.47,2.287,2.287,0,0,0,1.59.54,2.645,2.645,0,0,0,1.98-.84,2.867,2.867,0,0,0,.81-2.07ZM75.09,0V-21.6h4.56V0Zm7.62,0V-15.66h4.56V0Zm2.28-17.49a2.6,2.6,0,0,1-1.875-.735,2.452,2.452,0,0,1-.765-1.845,2.452,2.452,0,0,1,.765-1.845,2.6,2.6,0,0,1,1.875-.735,2.59,2.59,0,0,1,1.89.735,2.476,2.476,0,0,1,.75,1.845,2.476,2.476,0,0,1-.75,1.845A2.59,2.59,0,0,1,84.99-17.49ZM89.88,0V-3.03l7.26-9.09h-6.9v-3.54h12.51v3.03L95.46-3.54h7.65V0Zm20.1.39a5.414,5.414,0,0,1-3.72-1.245A4.239,4.239,0,0,1,104.85-4.2a4.822,4.822,0,0,1,2.07-4.155,9.918,9.918,0,0,1,5.85-1.485q.33,0,.66.015t.66.045q-.3-2.64-3.39-2.64a7.473,7.473,0,0,0-4.44,1.41v-3.57a8.658,8.658,0,0,1,5.19-1.47,7.054,7.054,0,0,1,5.16,1.77,6.793,6.793,0,0,1,1.8,5.07V0h-3.72l-.24-1.65a4.6,4.6,0,0,1-1.875,1.5A6.184,6.184,0,0,1,109.98.39Zm4.14-7.35q-.45-.03-1.14-.03a5.679,5.679,0,0,0-2.835.585A1.833,1.833,0,0,0,109.14-4.74a1.878,1.878,0,0,0,.6,1.47,2.287,2.287,0,0,0,1.59.54,2.645,2.645,0,0,0,1.98-.84,2.867,2.867,0,0,0,.81-2.07ZM121.38,0V-15.66h3.99l.3,2.25a4.916,4.916,0,0,1,1.515-1.86,3.37,3.37,0,0,1,2.025-.69,3,3,0,0,1,1.2.21v4.23a2.856,2.856,0,0,0-1.29-.27,2.893,2.893,0,0,0-2.325,1,4.149,4.149,0,0,0-.855,2.775V0Zm23.43.39a7.79,7.79,0,0,1-4.02-1.005,6.84,6.84,0,0,1-2.655-2.85A9.391,9.391,0,0,1,137.19-7.8a9.484,9.484,0,0,1,.945-4.35,6.888,6.888,0,0,1,2.67-2.88,7.72,7.72,0,0,1,4.005-1.02,7.79,7.79,0,0,1,4.02,1.005,6.84,6.84,0,0,1,2.655,2.85,9.391,9.391,0,0,1,.945,4.335,9.484,9.484,0,0,1-.945,4.35A6.919,6.919,0,0,1,148.83-.63,7.7,7.7,0,0,1,144.81.39Zm0-3.69a2.514,2.514,0,0,0,2.2-1.185,5.908,5.908,0,0,0,.8-3.315,6.049,6.049,0,0,0-.8-3.36,2.506,2.506,0,0,0-2.2-1.2,2.514,2.514,0,0,0-2.205,1.185,5.908,5.908,0,0,0-.795,3.315A6.049,6.049,0,0,0,142.6-4.5,2.506,2.506,0,0,0,144.81-3.3ZM163.17.39a5.013,5.013,0,0,1-4.35-2.1L158.58,0H154.8V-21.6h4.56v7.44a4.942,4.942,0,0,1,4.14-1.89,5.715,5.715,0,0,1,3.345.99,6.466,6.466,0,0,1,2.22,2.82,10.865,10.865,0,0,1,.795,4.35,10.813,10.813,0,0,1-.825,4.41A6.531,6.531,0,0,1,166.71-.615,6.209,6.209,0,0,1,163.17.39Zm-.93-3.69a2.514,2.514,0,0,0,2.205-1.185A5.908,5.908,0,0,0,165.24-7.8a6.049,6.049,0,0,0-.795-3.36,2.506,2.506,0,0,0-2.205-1.2,2.514,2.514,0,0,0-2.205,1.185,5.908,5.908,0,0,0-.795,3.315,6.049,6.049,0,0,0,.795,3.36A2.506,2.506,0,0,0,162.24-3.3ZM172.23,0V-15.66h3.99l.3,2.25a4.915,4.915,0,0,1,1.515-1.86,3.37,3.37,0,0,1,2.025-.69,3,3,0,0,1,1.2.21v4.23a2.856,2.856,0,0,0-1.29-.27,2.893,2.893,0,0,0-2.325,1,4.149,4.149,0,0,0-.855,2.775V0ZM187.5.39a5.414,5.414,0,0,1-3.72-1.245A4.239,4.239,0,0,1,182.37-4.2a4.822,4.822,0,0,1,2.07-4.155,9.917,9.917,0,0,1,5.85-1.485q.33,0,.66.015t.66.045q-.3-2.64-3.39-2.64a7.473,7.473,0,0,0-4.44,1.41v-3.57a8.658,8.658,0,0,1,5.19-1.47,7.054,7.054,0,0,1,5.16,1.77,6.793,6.793,0,0,1,1.8,5.07V0h-3.72l-.24-1.65a4.6,4.6,0,0,1-1.875,1.5A6.184,6.184,0,0,1,187.5.39Zm4.14-7.35q-.45-.03-1.14-.03a5.679,5.679,0,0,0-2.835.585,1.833,1.833,0,0,0-1,1.665,1.878,1.878,0,0,0,.6,1.47,2.287,2.287,0,0,0,1.59.54,2.645,2.645,0,0,0,1.98-.84,2.867,2.867,0,0,0,.81-2.07Z" transform="translate(1386 3278)"/>
    <g id="Grupo_1640" data-name="Grupo 1640" transform="translate(1327 3246)">
      <g id="Grupo_1638" data-name="Grupo 1638" clip-path="url(#clip-path)">
        <path id="Caminho_920" data-name="Caminho 920" d="M30.667,5.464a17.911,17.911,0,1,1-25.2,2.527A17.854,17.854,0,0,1,30.667,5.464Z" fill="none" stroke="#000" stroke-linecap="round" stroke-linejoin="round" stroke-width="2.835"/>
        <line id="Linha_38" data-name="Linha 38" x1="14.14" y1="11.563" transform="translate(33.194 30.668)" fill="none" stroke="#000" stroke-linecap="round" stroke-linejoin="round" stroke-width="2.835"/>
        <line id="Linha_39" data-name="Linha 39" y2="19.935" transform="translate(19.415 9.398)" fill="none" stroke="#000" stroke-linecap="round" stroke-linejoin="round" stroke-width="2.835"/>
        <line id="Linha_40" data-name="Linha 40" x1="19.935" transform="translate(9.447 19.365)" fill="none" stroke="#000" stroke-linecap="round" stroke-linejoin="round" stroke-width="2.835"/>
      </g>
    </g>
  </g>
</svg>
