<svg xmlns="http://www.w3.org/2000/svg" width="290.737" height="80.666" viewBox="0 0 290.737 80.666">
  <g id="Grupo_1701" data-name="Grupo 1701" transform="translate(-3605.286 429.752)">
    <g id="Grupo_3" data-name="Grupo 3" transform="translate(3605.286 -429.752)">
      <rect id="Ret창ngulo_343" data-name="Ret창ngulo 343" width="285.613" height="74.261" rx="37.13" transform="translate(2.562 3.843)" fill="#f8ece9"/>
      <g id="Ret창ngulo_346" data-name="Ret창ngulo 346" transform="translate(0 0)" fill="none" stroke="#fff" stroke-width="4">
        <rect width="290.737" height="80.666" rx="40.333" stroke="none"/>
        <rect x="2" y="2" width="286.737" height="76.666" rx="38.333" fill="none"/>
      </g>
    </g>
    <path id="Caminho_940" data-name="Caminho 940" d="M5.563-8.469V0H2.938V-22.406H9.094a8.126,8.126,0,0,1,5.57,1.75,6.248,6.248,0,0,1,1.977,4.938,6.791,6.791,0,0,1-2.2,5.219,8.388,8.388,0,0,1-5.93,2.031Zm0-11.562v9.188h2.75a6.148,6.148,0,0,0,4.148-1.242,4.4,4.4,0,0,0,1.43-3.508q0-4.437-5.25-4.437ZM30.587,0H28.024V-2.5h-.062A5.365,5.365,0,0,1,23.04.375,5.26,5.26,0,0,1,19.3-.891,4.385,4.385,0,0,1,17.946-4.25q0-4.484,5.281-5.219l4.8-.672q0-4.078-3.3-4.078a7.877,7.877,0,0,0-5.219,1.969v-2.625a9.915,9.915,0,0,1,5.438-1.5q5.641,0,5.641,5.969ZM28.024-8.094l-3.859.531a6.266,6.266,0,0,0-2.687.883,2.546,2.546,0,0,0-.906,2.242,2.442,2.442,0,0,0,.836,1.914,3.23,3.23,0,0,0,2.227.742,4.113,4.113,0,0,0,3.148-1.336A4.773,4.773,0,0,0,28.024-6.5Zm15.446-5.312a3.133,3.133,0,0,0-1.937-.516,3.27,3.27,0,0,0-2.742,1.547,7.152,7.152,0,0,0-1.1,4.219V0H35.127V-16H37.69v3.3h.063a5.587,5.587,0,0,1,1.672-2.633,3.812,3.812,0,0,1,2.516-.945,4.183,4.183,0,0,1,1.531.219ZM57.417,0H54.855V-2.5h-.062A5.365,5.365,0,0,1,49.87.375,5.26,5.26,0,0,1,46.128-.891,4.385,4.385,0,0,1,44.777-4.25q0-4.484,5.281-5.219l4.8-.672q0-4.078-3.3-4.078a7.877,7.877,0,0,0-5.219,1.969v-2.625a9.915,9.915,0,0,1,5.438-1.5q5.641,0,5.641,5.969ZM54.855-8.094,51-7.562a6.266,6.266,0,0,0-2.687.883A2.546,2.546,0,0,0,47.4-4.437a2.442,2.442,0,0,0,.836,1.914,3.23,3.23,0,0,0,2.227.742,4.113,4.113,0,0,0,3.148-1.336A4.773,4.773,0,0,0,54.855-6.5Zm23.924-5.312a3.133,3.133,0,0,0-1.937-.516A3.27,3.27,0,0,0,74.1-12.375,7.152,7.152,0,0,0,73-8.156V0H70.435V-16H73v3.3h.063a5.587,5.587,0,0,1,1.672-2.633,3.812,3.812,0,0,1,2.516-.945,4.183,4.183,0,0,1,1.531.219ZM94.131-7.359h-11.3a5.984,5.984,0,0,0,1.438,4.125,4.956,4.956,0,0,0,3.781,1.453,7.861,7.861,0,0,0,4.969-1.781v2.406A9.286,9.286,0,0,1,87.444.375,6.763,6.763,0,0,1,82.116-1.8a8.922,8.922,0,0,1-1.937-6.133A8.749,8.749,0,0,1,82.3-14.023a6.789,6.789,0,0,1,5.258-2.352,6.015,6.015,0,0,1,4.859,2.031A8.469,8.469,0,0,1,94.131-8.7ZM91.506-9.531a5.214,5.214,0,0,0-1.07-3.453,3.647,3.647,0,0,0-2.93-1.234,4.139,4.139,0,0,0-3.078,1.3,5.885,5.885,0,0,0-1.562,3.391Zm14.118-11.906a3.413,3.413,0,0,0-1.7-.422q-2.687,0-2.687,3.391V-16h3.75v2.188h-3.75V0H98.687V-13.812H95.953V-16h2.734v-2.594a5.39,5.39,0,0,1,1.453-3.977,4.906,4.906,0,0,1,3.625-1.461,5.021,5.021,0,0,1,1.859.281ZM110.008,0h-2.562V-23.687h2.563Zm17.759-7.359h-11.3a5.984,5.984,0,0,0,1.438,4.125,4.956,4.956,0,0,0,3.781,1.453,7.861,7.861,0,0,0,4.969-1.781v2.406A9.286,9.286,0,0,1,121.08.375a6.763,6.763,0,0,1-5.328-2.18,8.922,8.922,0,0,1-1.937-6.133,8.749,8.749,0,0,1,2.117-6.086,6.789,6.789,0,0,1,5.258-2.352,6.015,6.015,0,0,1,4.859,2.031A8.469,8.469,0,0,1,127.767-8.7Zm-2.625-2.172a5.214,5.214,0,0,0-1.07-3.453,3.647,3.647,0,0,0-2.93-1.234,4.139,4.139,0,0,0-3.078,1.3A5.885,5.885,0,0,0,116.5-9.531ZM138.776-.156a4.941,4.941,0,0,1-2.391.5q-4.2,0-4.2-4.687v-9.469h-2.75V-16h2.75v-3.906l2.563-.828V-16h4.031v2.188h-4.031V-4.8a3.738,3.738,0,0,0,.547,2.3,2.182,2.182,0,0,0,1.813.688,2.694,2.694,0,0,0,1.672-.531Zm4.446-19.906a1.624,1.624,0,0,1-1.172-.469,1.582,1.582,0,0,1-.484-1.187,1.608,1.608,0,0,1,.484-1.2,1.61,1.61,0,0,1,1.172-.477,1.655,1.655,0,0,1,1.2.477,1.6,1.6,0,0,1,.492,1.2,1.584,1.584,0,0,1-.492,1.172A1.641,1.641,0,0,1,143.223-20.062ZM144.473,0H141.91V-16h2.563Zm13.243-13.406a3.133,3.133,0,0,0-1.937-.516,3.27,3.27,0,0,0-2.742,1.547,7.152,7.152,0,0,0-1.1,4.219V0h-2.562V-16h2.563v3.3H152a5.587,5.587,0,0,1,1.672-2.633,3.812,3.812,0,0,1,2.516-.945,4.183,4.183,0,0,1,1.531.219Z" transform="translate(3704.555 -378.87)" fill="#b5442d"/>
    <g id="Grupo_24" data-name="Grupo 24" transform="translate(3644.749 -409.019)">
      <path id="Caminho_5" data-name="Caminho 5" d="M30.232,51.58h0a3.043,3.043,0,0,1-3.043-3.043V15.424a3.043,3.043,0,0,1,6.086,0V48.538a3.043,3.043,0,0,1-3.043,3.043" transform="translate(-10.634 -12.381)" fill="#b5442d"/>
      <path id="Caminho_6" data-name="Caminho 6" d="M22.042,20.571h0a3.043,3.043,0,0,1,3.043-3.043H58.2a3.043,3.043,0,1,1,0,6.086H25.085a3.043,3.043,0,0,1-3.043-3.043" transform="translate(-22.042 -0.973)" fill="#b5442d"/>
    </g>
  </g>
</svg>
