<svg xmlns="http://www.w3.org/2000/svg" width="290.737" height="80.666" viewBox="0 0 290.737 80.666">
  <g id="Grupo_859" data-name="Grupo 859" transform="translate(-3605.286 429.752)">
    <g id="Grupo_3" data-name="Grupo 3" transform="translate(3605.286 -429.752)">
      <rect id="Ret창ngulo_343" data-name="Ret창ngulo 343" width="285.613" height="74.261" rx="37.13" transform="translate(2.562 3.843)" fill="#E7EBF0"/>
      <g id="Ret창ngulo_346" data-name="Ret창ngulo 346" transform="translate(0 0)" fill="none" stroke="#fff" stroke-width="4">
        <rect width="290.737" height="80.666" rx="40.333" stroke="none"/>
        <rect x="2" y="2" width="286.737" height="76.666" rx="38.333" fill="none"/>
      </g>
    </g>
    <path id="Caminho_807" data-name="Caminho 807" d="M1.891-.906V-4a6.008,6.008,0,0,0,1.273.844,10.317,10.317,0,0,0,1.563.633,12.439,12.439,0,0,0,1.648.4,9.191,9.191,0,0,0,1.531.141,6,6,0,0,0,3.617-.9,3.039,3.039,0,0,0,1.2-2.586,3.036,3.036,0,0,0-.4-1.578,4.488,4.488,0,0,0-1.1-1.227A10.931,10.931,0,0,0,9.555-9.336q-.961-.508-2.07-1.07Q6.313-11,5.3-11.609a9.479,9.479,0,0,1-1.766-1.344,5.605,5.605,0,0,1-1.18-1.664,5.151,5.151,0,0,1-.43-2.18,5.125,5.125,0,0,1,.672-2.664,5.763,5.763,0,0,1,1.766-1.867,8,8,0,0,1,2.492-1.094A11.411,11.411,0,0,1,9.7-22.781a10.928,10.928,0,0,1,4.828.8v2.953a8.752,8.752,0,0,0-5.094-1.375,8.377,8.377,0,0,0-1.719.18,4.855,4.855,0,0,0-1.531.586,3.392,3.392,0,0,0-1.094,1.047,2.779,2.779,0,0,0-.422,1.563,3.217,3.217,0,0,0,.32,1.484,3.638,3.638,0,0,0,.945,1.141,9.415,9.415,0,0,0,1.523,1q.9.484,2.07,1.063,1.2.594,2.281,1.25A10.427,10.427,0,0,1,13.7-9.641a6.457,6.457,0,0,1,1.289,1.766,4.963,4.963,0,0,1,.477,2.219,5.627,5.627,0,0,1-.648,2.8A5.322,5.322,0,0,1,13.07-.984,7.643,7.643,0,0,1,10.531.055,13.905,13.905,0,0,1,7.5.375,12.352,12.352,0,0,1,6.188.289Q5.406.2,4.594.039A13,13,0,0,1,3.055-.367,4.789,4.789,0,0,1,1.891-.906ZM30.759,0H28.2V-2.5h-.062A5.365,5.365,0,0,1,23.212.375,5.26,5.26,0,0,1,19.47-.891,4.385,4.385,0,0,1,18.118-4.25q0-4.484,5.281-5.219l4.8-.672q0-4.078-3.3-4.078a7.877,7.877,0,0,0-5.219,1.969v-2.625a9.915,9.915,0,0,1,5.438-1.5q5.641,0,5.641,5.969ZM28.2-8.094l-3.859.531a6.266,6.266,0,0,0-2.687.883,2.546,2.546,0,0,0-.906,2.242,2.442,2.442,0,0,0,.836,1.914,3.23,3.23,0,0,0,2.227.742,4.113,4.113,0,0,0,3.148-1.336A4.773,4.773,0,0,0,28.2-6.5Zm8.415-11.969a1.624,1.624,0,0,1-1.172-.469,1.582,1.582,0,0,1-.484-1.187,1.608,1.608,0,0,1,.484-1.2,1.61,1.61,0,0,1,1.172-.477,1.655,1.655,0,0,1,1.2.477,1.6,1.6,0,0,1,.492,1.2,1.584,1.584,0,0,1-.492,1.172A1.641,1.641,0,0,1,36.611-20.062ZM37.861,0H35.3V-16h2.563Zm7.525-2.312h-.062V0H42.761V-23.687h2.563v10.5h.063a6.059,6.059,0,0,1,5.531-3.187,5.864,5.864,0,0,1,4.82,2.148A8.871,8.871,0,0,1,57.48-8.469a9.917,9.917,0,0,1-1.953,6.43A6.5,6.5,0,0,1,50.183.375,5.263,5.263,0,0,1,45.386-2.312Zm-.062-6.453v2.234a4.757,4.757,0,0,0,1.289,3.367,4.28,4.28,0,0,0,3.273,1.383,4.289,4.289,0,0,0,3.648-1.781,8.172,8.172,0,0,0,1.32-4.953A6.451,6.451,0,0,0,53.62-12.7a4.085,4.085,0,0,0-3.344-1.516,4.54,4.54,0,0,0-3.594,1.555A5.708,5.708,0,0,0,45.324-8.766ZM72.739,0H70.176V-2.5h-.062A5.365,5.365,0,0,1,65.192.375,5.26,5.26,0,0,1,61.45-.891,4.385,4.385,0,0,1,60.1-4.25q0-4.484,5.281-5.219l4.8-.672q0-4.078-3.3-4.078A7.877,7.877,0,0,0,61.66-12.25v-2.625a9.915,9.915,0,0,1,5.437-1.5q5.641,0,5.641,5.969ZM70.176-8.094l-3.859.531a6.266,6.266,0,0,0-2.687.883,2.546,2.546,0,0,0-.906,2.242,2.442,2.442,0,0,0,.836,1.914,3.23,3.23,0,0,0,2.227.742,4.113,4.113,0,0,0,3.148-1.336A4.773,4.773,0,0,0,70.176-6.5ZM108.475,0h-2.562V-9.187a6.931,6.931,0,0,0-.82-3.844,3.111,3.111,0,0,0-2.758-1.187,3.415,3.415,0,0,0-2.789,1.5A5.738,5.738,0,0,0,98.4-9.125V0H95.834V-9.5q0-4.719-3.641-4.719A3.372,3.372,0,0,0,89.413-12.8a5.845,5.845,0,0,0-1.094,3.68V0H85.756V-16h2.563v2.531h.063a5.436,5.436,0,0,1,4.969-2.906,4.633,4.633,0,0,1,2.859.914,4.6,4.6,0,0,1,1.672,2.4,5.71,5.71,0,0,1,5.313-3.312q5.281,0,5.281,6.516Zm16.009,0h-2.562V-2.5h-.062A5.365,5.365,0,0,1,116.937.375a5.26,5.26,0,0,1-3.742-1.266,4.385,4.385,0,0,1-1.352-3.359q0-4.484,5.281-5.219l4.8-.672q0-4.078-3.3-4.078a7.877,7.877,0,0,0-5.219,1.969v-2.625a9.915,9.915,0,0,1,5.438-1.5q5.641,0,5.641,5.969Zm-2.562-8.094-3.859.531a6.266,6.266,0,0,0-2.687.883,2.546,2.546,0,0,0-.906,2.242,2.442,2.442,0,0,0,.836,1.914,3.23,3.23,0,0,0,2.227.742,4.113,4.113,0,0,0,3.148-1.336A4.773,4.773,0,0,0,121.921-6.5Zm8.415-11.969a1.624,1.624,0,0,1-1.172-.469,1.582,1.582,0,0,1-.484-1.187,1.608,1.608,0,0,1,.484-1.2,1.61,1.61,0,0,1,1.172-.477,1.655,1.655,0,0,1,1.2.477,1.6,1.6,0,0,1,.492,1.2,1.584,1.584,0,0,1-.492,1.172A1.641,1.641,0,0,1,130.337-20.062ZM131.587,0h-2.562V-16h2.563Zm3.931-.578v-2.75a7.583,7.583,0,0,0,4.609,1.547q3.375,0,3.375-2.25a1.952,1.952,0,0,0-.289-1.086,2.881,2.881,0,0,0-.781-.789,6.014,6.014,0,0,0-1.156-.617q-.664-.273-1.43-.57a18.413,18.413,0,0,1-1.867-.852,5.641,5.641,0,0,1-1.344-.969,3.6,3.6,0,0,1-.812-1.227,4.339,4.339,0,0,1-.273-1.609,3.823,3.823,0,0,1,.516-1.992,4.572,4.572,0,0,1,1.375-1.453,6.412,6.412,0,0,1,1.961-.883,8.7,8.7,0,0,1,2.273-.3,9.18,9.18,0,0,1,3.719.719v2.594a7.247,7.247,0,0,0-4.062-1.156,4.749,4.749,0,0,0-1.3.164,3.175,3.175,0,0,0-.992.461,2.129,2.129,0,0,0-.641.711,1.873,1.873,0,0,0-.227.914,2.192,2.192,0,0,0,.227,1.047,2.3,2.3,0,0,0,.664.75,5.076,5.076,0,0,0,1.063.594q.625.266,1.422.578a19.79,19.79,0,0,1,1.906.836,6.538,6.538,0,0,1,1.438.969,3.786,3.786,0,0,1,.914,1.242,4.006,4.006,0,0,1,.32,1.672,3.942,3.942,0,0,1-.523,2.063,4.486,4.486,0,0,1-1.4,1.453,6.4,6.4,0,0,1-2.016.859A9.952,9.952,0,0,1,139.8.375,9.078,9.078,0,0,1,135.517-.578Z" transform="translate(3704.555 -378.87)" fill="#16406D"/>
    <g id="Grupo_24" data-name="Grupo 24" transform="translate(3644.749 -409.019)">
      <path id="Caminho_5" data-name="Caminho 5" d="M30.232,51.58h0a3.043,3.043,0,0,1-3.043-3.043V15.424a3.043,3.043,0,0,1,6.086,0V48.538a3.043,3.043,0,0,1-3.043,3.043" transform="translate(-10.634 -12.381)" fill="#16406D"/>
      <path id="Caminho_6" data-name="Caminho 6" d="M22.042,20.571h0a3.043,3.043,0,0,1,3.043-3.043H58.2a3.043,3.043,0,1,1,0,6.086H25.085a3.043,3.043,0,0,1-3.043-3.043" transform="translate(-22.042 -0.973)" fill="#16406D"/>
    </g>
  </g>
</svg>
