<svg xmlns="http://www.w3.org/2000/svg" width="186" height="54" viewBox="0 0 186 54">
  <g id="Grupo_1661" data-name="Grupo 1661" transform="translate(-220 -493)">
    <g id="Retângulo_866" data-name="Retângulo 866" transform="translate(220 493)" fill="#eaf2f0" stroke="#fff" stroke-width="4">
      <rect width="186" height="54" rx="27" stroke="none"/>
      <rect x="2" y="2" width="182" height="50" rx="25" fill="none"/>
    </g>
    <g id="Grupo_1649" data-name="Grupo 1649" transform="translate(250.002 509.214)">
      <path id="Caminho_920" data-name="Caminho 920" d="M17.176,3.6A9.65,9.65,0,1,1,3.6,4.959,9.619,9.619,0,0,1,17.176,3.6Z" transform="translate(-1.417 -1.418)" fill="none" stroke="#153e6a" stroke-linecap="round" stroke-linejoin="round" stroke-width="4"/>
      <line id="Linha_38" data-name="Linha 38" x1="7.618" y1="6.23" transform="translate(17.122 15.76)" fill="none" stroke="#153e6a" stroke-linecap="round" stroke-linejoin="round" stroke-width="4"/>
    </g>
    <path id="Caminho_927" data-name="Caminho 927" d="M15.07,15H11.65q-1.36-3.18-2.51-6.55T7.05,1.5h3.36q.64,2.78,1.37,5.3t1.61,4.9q.96-2.56,1.64-5.01T16.35,1.5h3.3q-.86,3.32-2,6.69T15.07,15Zm5.9,0V4.56h3.04V15ZM22.49,3.34a1.736,1.736,0,0,1-1.25-.49,1.634,1.634,0,0,1-.51-1.23A1.634,1.634,0,0,1,21.24.39a1.852,1.852,0,0,1,2.51,0,1.651,1.651,0,0,1,.5,1.23,1.651,1.651,0,0,1-.5,1.23A1.727,1.727,0,0,1,22.49,3.34Zm6.6,11.92a8.549,8.549,0,0,1-1.86-.2,5.806,5.806,0,0,1-1.58-.58V12.1a5.622,5.622,0,0,0,1.49.64,6.194,6.194,0,0,0,1.63.22q1.6,0,1.6-.98a.765.765,0,0,0-.41-.66,6.6,6.6,0,0,0-1.59-.58q-2.76-.78-2.76-3.16A2.825,2.825,0,0,1,26.82,5.2a5.288,5.288,0,0,1,3.23-.9,6.847,6.847,0,0,1,1.47.16,4.484,4.484,0,0,1,1.23.44V7.24a5.557,5.557,0,0,0-2.62-.64q-1.54,0-1.54.9a.714.714,0,0,0,.38.62,6.651,6.651,0,0,0,1.52.56,4.51,4.51,0,0,1,2.24,1.21,2.976,2.976,0,0,1,.7,2.05,2.9,2.9,0,0,1-1.16,2.42A5.065,5.065,0,0,1,29.09,15.26Zm9.32,0a3.2,3.2,0,0,1-2.56-1.12,4.36,4.36,0,0,1-.96-2.94V4.56h3.04V10.7a2.506,2.506,0,0,0,.41,1.54,1.382,1.382,0,0,0,1.17.54,1.482,1.482,0,0,0,1.21-.55,2.317,2.317,0,0,0,.45-1.51V4.56h3.04V15H41.55l-.16-1.14A3.521,3.521,0,0,1,38.41,15.26Zm10.8,0a3.609,3.609,0,0,1-2.48-.83,2.826,2.826,0,0,1-.94-2.23,3.214,3.214,0,0,1,1.38-2.77,6.612,6.612,0,0,1,3.9-.99q.22,0,.44.01t.44.03q-.2-1.76-2.26-1.76a4.982,4.982,0,0,0-2.96.94V5.28a5.772,5.772,0,0,1,3.46-.98,4.7,4.7,0,0,1,3.44,1.18,4.529,4.529,0,0,1,1.2,3.38V15H52.35l-.16-1.1a3.067,3.067,0,0,1-1.25,1A4.122,4.122,0,0,1,49.21,15.26Zm2.76-4.9q-.3-.02-.76-.02a3.786,3.786,0,0,0-1.89.39,1.222,1.222,0,0,0-.67,1.11,1.252,1.252,0,0,0,.4.98,1.525,1.525,0,0,0,1.06.36,1.763,1.763,0,0,0,1.32-.56,1.912,1.912,0,0,0,.54-1.38ZM56.81,15V.6h3.04V15Zm5.08,0V4.56h3.04V15ZM63.41,3.34a1.736,1.736,0,0,1-1.25-.49,1.634,1.634,0,0,1-.51-1.23A1.634,1.634,0,0,1,62.16.39a1.852,1.852,0,0,1,2.51,0,1.651,1.651,0,0,1,.5,1.23,1.651,1.651,0,0,1-.5,1.23A1.727,1.727,0,0,1,63.41,3.34ZM66.67,15V12.98l4.84-6.06h-4.6V4.56h8.34V6.58l-4.86,6.06h5.1V15Zm13.4.26a3.609,3.609,0,0,1-2.48-.83,2.826,2.826,0,0,1-.94-2.23,3.214,3.214,0,0,1,1.38-2.77,6.612,6.612,0,0,1,3.9-.99q.22,0,.44.01t.44.03q-.2-1.76-2.26-1.76a4.982,4.982,0,0,0-2.96.94V5.28a5.772,5.772,0,0,1,3.46-.98,4.7,4.7,0,0,1,3.44,1.18,4.529,4.529,0,0,1,1.2,3.38V15H83.21l-.16-1.1a3.067,3.067,0,0,1-1.25,1A4.122,4.122,0,0,1,80.07,15.26Zm2.76-4.9q-.3-.02-.76-.02a3.786,3.786,0,0,0-1.89.39,1.222,1.222,0,0,0-.67,1.11,1.252,1.252,0,0,0,.4.98,1.525,1.525,0,0,0,1.06.36,1.763,1.763,0,0,0,1.32-.56,1.912,1.912,0,0,0,.54-1.38ZM87.67,15V4.56h2.66l.2,1.5a3.277,3.277,0,0,1,1.01-1.24,2.247,2.247,0,0,1,1.35-.46,2,2,0,0,1,.8.14V7.32a1.9,1.9,0,0,0-.86-.18,1.929,1.929,0,0,0-1.55.67,2.766,2.766,0,0,0-.57,1.85V15Z" transform="translate(280 513)" fill="#16406d"/>
  </g>
</svg>
