<svg xmlns="http://www.w3.org/2000/svg" width="320.562" height="82.645" viewBox="0 0 320.562 82.645">
  <g id="Grupo_1885" data-name="Grupo 1885" transform="translate(-789.633 -7877.355)">
    <g id="Grupo_1872" data-name="Grupo 1872" transform="translate(-2038.98 16050.695)">
      <path id="Uni達o_4" data-name="Uni達o 4" d="M126.269,82.513c-1.74-.021-5.16-.059-7.611-.085s-5.554-.064-6.916-.086c-9.091-.141-10.987-.176-12.846-.219-1.145-.025-3.893-.08-6.126-.128-6.205-.128-16.088-.376-18.479-.466-.652-.025-2.115-.073-3.26-.107-3.042-.094-7.887-.261-10.376-.359-4.328-.171-10.059-.42-10.968-.47-.377-.021-1.937-.1-3.459-.18-3.5-.172-6.4-.329-6.918-.381-.218-.021-.75-.06-1.187-.09-1.275-.082-3.479-.287-5.34-.482-2.737-.159-3.308-.2-3.868-.246-.347-.029-1.177-.092-1.85-.146-1.87-.146-4.855-.427-5.576-.529-.2-.029-.639-.083-.983-.121-.918-.107-2.381-.3-3.132-.407-1.307-.195-3.037-.476-3.309-.534-.113-.025-.587-.117-1.045-.2-1.056-.195-1.932-.373-2.089-.432-.064-.024-.226-.068-.356-.1A13.715,13.715,0,0,1,8,75.751a.329.329,0,0,0-.129-.073.994.994,0,0,1-.264-.136c-.113-.073-.286-.175-.375-.228a9.551,9.551,0,0,1-1.849-1.528c-.078-.093-.227-.268-.328-.388a7.636,7.636,0,0,1-.53-.753,11.266,11.266,0,0,1-1.5-3.831c-.167-.611-.4-1.577-.5-2.061-.055-.229-.132-.588-.179-.8-.222-.951-.424-1.989-.6-3.056-.048-.3-.132-.751-.179-1.019-.1-.5-.21-1.252-.359-2.4-.045-.36-.113-.831-.148-1.048s-.1-.787-.149-1.261S.794,56.127.763,55.912c-.055-.348-.161-1.45-.3-3.128C.435,52.45.387,51.7.351,51.11s-.1-1.372-.126-1.745C.143,48.443.054,45.8.011,42.841c-.042-2.371.036-6.723.155-8.755.154-2.741.465-6.626.59-7.518.038-.243.108-.829.156-1.309s.107-.951.124-1.043.08-.563.144-1.043c.131-.98.28-1.945.507-3.275.234-1.372.6-3.263.686-3.541.03-.092.078-.334.115-.533s.107-.5.155-.679.131-.49.179-.7c.316-1.27.757-2.822.859-3.007.03-.054.125-.271.219-.485A8.649,8.649,0,0,1,6.948,7.326a13.648,13.648,0,0,1,4.82-1.911c.036,0,.315-.059.626-.117s.782-.15,1.045-.2c.947-.185,2.624-.461,3.608-.6.279-.039.721-.107.982-.146s.669-.1.9-.121.643-.083.924-.122c1.329-.185,4.492-.509,6.621-.679.505-.039,1.192-.093,1.521-.122C29.3,3.2,31.151,3.082,32.85,3c1.468-.074,2.669-.13,3.756-.175,1.792-.153,3.63-.279,5.471-.374.119,0,1.047-.052,2.074-.1s2.588-.133,3.46-.18c3.143-.163,8.7-.407,11.957-.526.929-.034,2.392-.094,3.26-.128s2.214-.085,2.966-.108c.769-.025,2.132-.072,3.062-.107C73.263,1.138,83.737.851,90.793.7,92.473.667,94.746.62,95.832.595,100.16.5,106.307.394,111.938.321,124.112.159,130.754.09,139.806.043c15.058-.082,39.327-.044,52.472.08,6.8.065,19.092.219,23.518.3,1.3.02,3.438.059,4.744.08s3.261.064,4.346.09,3.32.072,4.942.107c5.829.124,8.693.188,9.288.214.336.018,1.935.064,3.557.107,8.081.223,20.494.66,24.309.86q1.33.064,2.667.124c3.143.141,4.606.21,5.337.256q1.578.089,3.163.172c2.144.113,4.118.244,5.963.395,2.049.085,4.663.213,5.739.286.394.024,1.039.068,1.433.092s.983.073,1.311.1,1,.083,1.49.122c1.759.141,2.625.214,2.8.243.1.019.583.073,1.073.121,2.439.253,6.184.748,7.336.975.268.048.536.1.805.141.949.161,1.39.239,1.611.291.317.065.636.131.954.194a13.913,13.913,0,0,1,4.569,1.664A10.847,10.847,0,0,1,315.4,8.888c.2.251.394.48.418.509a11.725,11.725,0,0,1,.961,1.745c.042.107.1.238.125.292a11.21,11.21,0,0,1,.429,1.358c.065.238.173.63.239.873.465,1.721,1.007,4.249,1.3,6.062.066.4.133.787.149.855.042.151.233,1.43.389,2.59.064.48.13.926.148.994s.073.505.121.97.1.936.119,1.043.084.772.149,1.48.144,1.566.179,1.915.084,1.1.121,1.674.088,1.382.118,1.794c.267,3.638.267,12.893,0,16.419-.036.4-.1,1.382-.15,2.183s-.112,1.639-.15,1.867-.084.77-.119,1.213-.09.994-.125,1.237-.094.829-.142,1.309-.115,1-.149,1.165-.1.606-.149.994c-.1.785-.311,2.274-.359,2.5-.017.078-.083.451-.149.824-.3,1.7-.626,3.361-.681,3.468a5.179,5.179,0,0,0-.118.509c-.191.946-.716,2.949-1,3.8a9.38,9.38,0,0,1-.709,1.636,2.413,2.413,0,0,0-.144.256,3.123,3.123,0,0,1-.3.475,1.817,1.817,0,0,0-.208.3,1.7,1.7,0,0,1-.227.276c-.12.131-.263.3-.316.363a10.641,10.641,0,0,1-1.3,1.135,6.626,6.626,0,0,1-1.1.683,1.677,1.677,0,0,0-.263.156,18.592,18.592,0,0,1-2.249.863q-.3.083-.6.17c-.162.059-1.056.243-2.089.432-.459.087-.93.178-1.043.2-.275.058-2,.339-3.312.534-1.192.178-3.28.436-4.8.6-.412.044-1.039.112-1.4.156-1.27.145-5.021.441-7.575.6l-1.5.09c-1.7.176-3.676.366-4.553.429-.659.048-1.32.1-1.977.15-.531.052-3.5.214-6.915.381-1.524.077-3.085.158-3.459.18-.91.05-6.641.3-10.97.47-3.952.158-10.871.386-15.91.527-1.362.039-3.439.1-4.643.137-4.209.128-16.644.389-25.1.53-6.6.107-8.144.128-12.352.171-2.45.026-5.87.06-7.61.085-6.937.088-20.465.132-34.017.132S133.3,82.6,126.269,82.513Z" transform="translate(2828.613 -8173.34)" fill="#fff"/>
      <path id="Uni達o_3" data-name="Uni達o 3" d="M121.043,69.271c-1.668-.018-4.946-.05-7.295-.072s-5.324-.054-6.631-.072c-8.716-.118-10.533-.148-12.315-.184l-5.872-.108c-5.949-.108-15.423-.315-17.715-.391-.625-.021-2.028-.061-3.126-.09-2.916-.079-7.56-.219-9.947-.3-4.149-.143-9.643-.352-10.514-.395-.36-.018-1.856-.087-3.315-.151-3.356-.144-6.138-.276-6.632-.32-.209-.018-.72-.051-1.138-.076-1.222-.069-3.335-.241-5.119-.4-2.624-.134-3.171-.166-3.708-.206-.331-.024-1.128-.077-1.773-.122-1.794-.122-4.654-.359-5.346-.444-.188-.024-.612-.07-.942-.1-.88-.09-2.282-.249-3-.342-1.253-.163-2.911-.4-3.173-.448-.108-.021-.561-.1-1-.171-1.011-.164-1.852-.313-2-.363-.063-.02-.216-.057-.342-.085a14.337,14.337,0,0,1-2.47-.83.331.331,0,0,0-.125-.061,1.012,1.012,0,0,1-.253-.114c-.108-.061-.274-.147-.36-.191a8.982,8.982,0,0,1-1.771-1.283c-.075-.078-.218-.225-.315-.326a6.623,6.623,0,0,1-.509-.632A8.83,8.83,0,0,1,2.9,57.771c-.16-.513-.382-1.324-.48-1.73-.052-.192-.126-.494-.171-.672-.212-.8-.406-1.67-.572-2.566-.046-.248-.126-.631-.172-.856-.092-.419-.2-1.051-.343-2.015-.044-.3-.108-.7-.142-.88s-.1-.66-.142-1.059S.76,47.119.73,46.939c-.052-.292-.153-1.217-.285-2.626C.416,44.032.371,43.4.336,42.908S.245,41.756.215,41.442c-.078-.774-.164-2.993-.2-5.477-.04-1.991.034-5.644.148-7.35.148-2.3.445-5.563.566-6.312.035-.2.1-.7.149-1.1s.1-.8.118-.876.076-.473.138-.876c.126-.823.268-1.633.486-2.749.224-1.152.572-2.74.658-2.973.028-.077.074-.281.109-.447s.1-.423.148-.57.126-.411.172-.591A25.467,25.467,0,0,1,3.527,9.6c.029-.045.12-.228.211-.407A7.593,7.593,0,0,1,6.66,6.151a14.2,14.2,0,0,1,4.621-1.6c.034,0,.3-.05.6-.1s.75-.126,1-.171c.908-.155,2.516-.387,3.459-.5.268-.033.692-.09.941-.122s.642-.081.86-.1.616-.07.885-.1c1.274-.155,4.307-.427,6.348-.57.484-.033,1.142-.078,1.457-.1,1.252-.089,3.029-.191,4.658-.26,1.406-.062,2.558-.11,3.6-.147,1.717-.128,3.479-.234,5.244-.314.114,0,1-.043,1.988-.085S44.8,1.86,45.64,1.821c3.013-.137,8.335-.342,11.462-.442.89-.028,2.293-.079,3.126-.108s2.122-.072,2.843-.091c.737-.021,2.044-.06,2.936-.09,4.225-.136,14.266-.377,21.03-.5C88.647.56,90.826.521,91.867.5,96.016.42,101.908.331,107.306.27,118.977.133,125.344.075,134.021.036c14.435-.069,37.7-.037,50.3.067,6.518.055,18.3.184,22.545.252,1.25.017,3.3.05,4.548.067s3.125.054,4.166.076,3.182.06,4.738.09c5.587.1,8.334.158,8.9.179.322.015,1.855.054,3.41.09,7.747.187,19.647.554,23.3.722.85.036,1.7.071,2.557.1,3.013.118,4.416.176,5.117.215q1.513.074,3.032.145c2.055.1,3.948.2,5.716.331,1.964.071,4.471.179,5.5.241.378.02,1,.057,1.373.077s.942.061,1.258.085.96.07,1.43.1c1.686.118,2.516.179,2.687.2.1.016.56.061,1.03.1,2.337.212,5.928.628,7.031.819.258.04.514.08.772.118.909.135,1.333.2,1.545.245.3.055.609.11.913.162a14.59,14.59,0,0,1,4.381,1.4,10.2,10.2,0,0,1,2.069,1.536c.194.211.378.4.4.427a9.533,9.533,0,0,1,.922,1.465c.04.09.092.2.12.245a8.493,8.493,0,0,1,.412,1.14c.062.2.166.529.228.733a51.08,51.08,0,0,1,1.246,5.089c.064.334.127.66.143.717.041.127.224,1.2.372,2.174.063.4.126.777.142.834s.07.424.115.814.1.786.114.876.08.648.142,1.243.138,1.314.171,1.608.081.924.116,1.405.085,1.16.114,1.506a123.78,123.78,0,0,1,0,13.784c-.034.333-.092,1.16-.144,1.832s-.108,1.376-.144,1.568-.08.647-.114,1.018-.086.834-.12,1.038-.09.7-.137,1.1-.109.843-.143.978-.1.508-.142.834c-.092.659-.3,1.909-.344,2.1-.016.065-.079.379-.143.692-.285,1.425-.6,2.822-.652,2.912a3.99,3.99,0,0,0-.114.427c-.182.794-.686,2.476-.954,3.188a7.4,7.4,0,0,1-.68,1.374,1.974,1.974,0,0,0-.137.215,2.614,2.614,0,0,1-.292.4,1.552,1.552,0,0,0-.2.253,1.455,1.455,0,0,1-.218.232c-.114.11-.252.248-.3.3a9.962,9.962,0,0,1-1.247.953,6.553,6.553,0,0,1-1.058.574,1.707,1.707,0,0,0-.252.131,19.3,19.3,0,0,1-2.155.725q-.288.07-.572.142c-.154.05-1.011.2-2,.363-.44.073-.891.15-1,.171-.264.049-1.921.285-3.174.448-1.143.15-3.145.366-4.6.5-.394.037-1,.094-1.344.131-1.218.121-4.814.37-7.261.5l-1.435.075c-1.631.148-3.524.308-4.365.36q-.949.06-1.895.126c-.509.043-3.353.179-6.63.32-1.46.064-2.956.133-3.315.151-.872.042-6.367.251-10.516.395-3.789.133-10.421.324-15.251.442-1.307.033-3.3.082-4.451.115-4.035.108-15.955.327-24.062.445-6.326.09-7.806.108-11.84.143-2.349.022-5.627.051-7.3.072-6.65.074-19.618.111-32.61.111S127.788,69.344,121.043,69.271Z" transform="translate(2834.735 -8166.198)" fill="#0e295b"/>
      <path id="Caminho_3027" data-name="Caminho 3027" d="M13.312,0H7.84Q5.664-5.088,3.824-10.48T.48-21.6H5.856q1.024,4.448,2.192,8.48t2.576,7.84q1.536-4.1,2.624-8.016t2.112-8.3h5.28q-1.376,5.312-3.2,10.7T13.312,0ZM28.32.416A8.309,8.309,0,0,1,24.032-.656,7.3,7.3,0,0,1,21.2-3.7,10.017,10.017,0,0,1,20.192-8.32,10.116,10.116,0,0,1,21.2-12.96a7.348,7.348,0,0,1,2.848-3.072A8.235,8.235,0,0,1,28.32-17.12a8.309,8.309,0,0,1,4.288,1.072,7.3,7.3,0,0,1,2.832,3.04,10.017,10.017,0,0,1,1.008,4.624,10.116,10.116,0,0,1-1.008,4.64A7.38,7.38,0,0,1,32.608-.672,8.213,8.213,0,0,1,28.32.416Zm0-3.936a2.681,2.681,0,0,0,2.352-1.264A6.3,6.3,0,0,0,31.52-8.32a6.452,6.452,0,0,0-.848-3.584,2.673,2.673,0,0,0-2.352-1.28,2.681,2.681,0,0,0-2.352,1.264,6.3,6.3,0,0,0-.848,3.536A6.452,6.452,0,0,0,25.968-4.8,2.673,2.673,0,0,0,28.32-3.52ZM38.976,0V-23.04H43.84V0Zm15.2.32q-5.952,0-5.952-6.048v-7.264h-2.56V-16.7h2.56v-4.352h4.864V-16.7h3.52v3.712h-3.52v6.816q0,2.624,2.112,2.624a3.705,3.705,0,0,0,1.792-.416V-.224A8.645,8.645,0,0,1,55.664.16,7.135,7.135,0,0,1,54.176.32Zm10.08.1A5.775,5.775,0,0,1,60.288-.912a4.521,4.521,0,0,1-1.5-3.568,5.143,5.143,0,0,1,2.208-4.432,10.579,10.579,0,0,1,6.24-1.584q.352,0,.7.016t.7.048q-.32-2.816-3.616-2.816a7.971,7.971,0,0,0-4.736,1.5v-3.808a9.235,9.235,0,0,1,5.536-1.568,7.524,7.524,0,0,1,5.5,1.888,7.246,7.246,0,0,1,1.92,5.408V0H69.28l-.256-1.76a4.908,4.908,0,0,1-2,1.6A6.6,6.6,0,0,1,64.256.416Zm4.416-7.84q-.48-.032-1.216-.032a6.058,6.058,0,0,0-3.024.624A1.955,1.955,0,0,0,63.36-5.056,2,2,0,0,0,64-3.488a2.439,2.439,0,0,0,1.7.576,2.822,2.822,0,0,0,2.112-.9,3.059,3.059,0,0,0,.864-2.208ZM76.416,0V-16.7h4.256l.32,2.4a5.243,5.243,0,0,1,1.616-1.984,3.6,3.6,0,0,1,2.16-.736,3.2,3.2,0,0,1,1.28.224v4.512a3.046,3.046,0,0,0-1.376-.288,3.086,3.086,0,0,0-2.48,1.072,4.426,4.426,0,0,0-.912,2.96V0Zm17.6,5.92V-16.7h4.256l.256,2.048A4.982,4.982,0,0,1,100.5-16.48a5.984,5.984,0,0,1,2.8-.64,6.1,6.1,0,0,1,3.568,1.056,6.9,6.9,0,0,1,2.368,3.008,11.589,11.589,0,0,1,.848,4.64,11.632,11.632,0,0,1-.864,4.672A7.1,7.1,0,0,1,106.8-.672,6.166,6.166,0,0,1,103.168.416,5.3,5.3,0,0,1,98.88-1.5V5.92Zm7.936-9.44A2.681,2.681,0,0,0,104.3-4.784a6.3,6.3,0,0,0,.848-3.536A6.452,6.452,0,0,0,104.3-11.9a2.673,2.673,0,0,0-2.352-1.28A2.681,2.681,0,0,0,99.6-11.92a6.3,6.3,0,0,0-.848,3.536A6.452,6.452,0,0,0,99.6-4.8,2.673,2.673,0,0,0,101.952-3.52ZM117.344.416a5.775,5.775,0,0,1-3.968-1.328,4.521,4.521,0,0,1-1.5-3.568,5.143,5.143,0,0,1,2.208-4.432,10.579,10.579,0,0,1,6.24-1.584q.352,0,.7.016t.7.048q-.32-2.816-3.616-2.816a7.971,7.971,0,0,0-4.736,1.5v-3.808a9.235,9.235,0,0,1,5.536-1.568,7.524,7.524,0,0,1,5.5,1.888,7.246,7.246,0,0,1,1.92,5.408V0h-3.968l-.256-1.76a4.908,4.908,0,0,1-2,1.6A6.6,6.6,0,0,1,117.344.416Zm4.416-7.84q-.48-.032-1.216-.032a6.058,6.058,0,0,0-3.024.624,1.955,1.955,0,0,0-1.072,1.776,2,2,0,0,0,.64,1.568,2.439,2.439,0,0,0,1.7.576,2.822,2.822,0,0,0,2.112-.9,3.059,3.059,0,0,0,.864-2.208ZM129.5,0V-16.7h4.256l.32,2.4a5.243,5.243,0,0,1,1.616-1.984,3.6,3.6,0,0,1,2.16-.736,3.2,3.2,0,0,1,1.28.224v4.512a3.046,3.046,0,0,0-1.376-.288,3.086,3.086,0,0,0-2.48,1.072,4.426,4.426,0,0,0-.912,2.96V0Zm16.288.416a5.775,5.775,0,0,1-3.968-1.328,4.521,4.521,0,0,1-1.5-3.568,5.143,5.143,0,0,1,2.208-4.432,10.579,10.579,0,0,1,6.24-1.584q.352,0,.7.016t.7.048q-.32-2.816-3.616-2.816a7.971,7.971,0,0,0-4.736,1.5v-3.808a9.235,9.235,0,0,1,5.536-1.568,7.524,7.524,0,0,1,5.5,1.888,7.246,7.246,0,0,1,1.92,5.408V0h-3.968l-.256-1.76a4.908,4.908,0,0,1-2,1.6A6.6,6.6,0,0,1,145.792.416Zm4.416-7.84q-.48-.032-1.216-.032a6.058,6.058,0,0,0-3.024.624A1.955,1.955,0,0,0,144.9-5.056a2,2,0,0,0,.64,1.568,2.439,2.439,0,0,0,1.7.576,2.822,2.822,0,0,0,2.112-.9,3.059,3.059,0,0,0,.864-2.208ZM170.784.416A8.309,8.309,0,0,1,166.5-.656a7.3,7.3,0,0,1-2.832-3.04,10.017,10.017,0,0,1-1.008-4.624,10.116,10.116,0,0,1,1.008-4.64,7.348,7.348,0,0,1,2.848-3.072,8.235,8.235,0,0,1,4.272-1.088,8.309,8.309,0,0,1,4.288,1.072,7.3,7.3,0,0,1,2.832,3.04,10.017,10.017,0,0,1,1.008,4.624,10.116,10.116,0,0,1-1.008,4.64,7.38,7.38,0,0,1-2.832,3.072A8.213,8.213,0,0,1,170.784.416Zm0-3.936a2.681,2.681,0,0,0,2.352-1.264,6.3,6.3,0,0,0,.848-3.536,6.452,6.452,0,0,0-.848-3.584,2.673,2.673,0,0,0-2.352-1.28,2.681,2.681,0,0,0-2.352,1.264,6.3,6.3,0,0,0-.848,3.536,6.452,6.452,0,0,0,.848,3.584A2.673,2.673,0,0,0,170.784-3.52ZM186.88,0V-16.7h4.256l.224,1.7a5.382,5.382,0,0,1,1.936-1.568,5.741,5.741,0,0,1,2.512-.544,4.908,4.908,0,0,1,2.64.7,4.894,4.894,0,0,1,1.776,1.92,6.052,6.052,0,0,1,2.16-1.936,6.216,6.216,0,0,1,2.96-.688,4.894,4.894,0,0,1,3.856,1.648,6.4,6.4,0,0,1,1.456,4.4V0h-4.864V-10.3q0-2.784-2.208-2.784a2.173,2.173,0,0,0-1.728.736,3.02,3.02,0,0,0-.64,2.048V0h-4.864V-10.3q0-2.784-2.24-2.784a2.173,2.173,0,0,0-1.728.736,3.02,3.02,0,0,0-.64,2.048V0Zm31.68.416a5.775,5.775,0,0,1-3.968-1.328,4.521,4.521,0,0,1-1.5-3.568A5.143,5.143,0,0,1,215.3-8.912a10.579,10.579,0,0,1,6.24-1.584q.352,0,.7.016t.7.048q-.32-2.816-3.616-2.816a7.971,7.971,0,0,0-4.736,1.5v-3.808a9.235,9.235,0,0,1,5.536-1.568,7.524,7.524,0,0,1,5.5,1.888,7.246,7.246,0,0,1,1.92,5.408V0h-3.968l-.256-1.76a4.908,4.908,0,0,1-2,1.6A6.6,6.6,0,0,1,218.56.416Zm4.416-7.84q-.48-.032-1.216-.032a6.058,6.058,0,0,0-3.024.624,1.955,1.955,0,0,0-1.072,1.776,2,2,0,0,0,.64,1.568,2.439,2.439,0,0,0,1.7.576,2.822,2.822,0,0,0,2.112-.9,3.059,3.059,0,0,0,.864-2.208ZM230.72,5.92V-16.7h4.256l.256,2.048A4.982,4.982,0,0,1,237.2-16.48a5.984,5.984,0,0,1,2.8-.64,6.1,6.1,0,0,1,3.568,1.056,6.9,6.9,0,0,1,2.368,3.008,11.59,11.59,0,0,1,.848,4.64,11.632,11.632,0,0,1-.864,4.672A7.1,7.1,0,0,1,243.5-.672,6.166,6.166,0,0,1,239.872.416a5.3,5.3,0,0,1-4.288-1.92V5.92Zm7.936-9.44a2.681,2.681,0,0,0,2.352-1.264,6.3,6.3,0,0,0,.848-3.536,6.452,6.452,0,0,0-.848-3.584,2.673,2.673,0,0,0-2.352-1.28A2.681,2.681,0,0,0,236.3-11.92a6.3,6.3,0,0,0-.848,3.536A6.452,6.452,0,0,0,236.3-4.8,2.673,2.673,0,0,0,238.656-3.52ZM254.048.416A5.775,5.775,0,0,1,250.08-.912a4.521,4.521,0,0,1-1.5-3.568,5.143,5.143,0,0,1,2.208-4.432,10.579,10.579,0,0,1,6.24-1.584q.352,0,.7.016t.7.048q-.32-2.816-3.616-2.816a7.971,7.971,0,0,0-4.736,1.5v-3.808a9.235,9.235,0,0,1,5.536-1.568,7.524,7.524,0,0,1,5.5,1.888,7.246,7.246,0,0,1,1.92,5.408V0h-3.968l-.256-1.76a4.908,4.908,0,0,1-2,1.6A6.6,6.6,0,0,1,254.048.416Zm4.416-7.84q-.48-.032-1.216-.032a6.058,6.058,0,0,0-3.024.624,1.955,1.955,0,0,0-1.072,1.776,2,2,0,0,0,.64,1.568,2.439,2.439,0,0,0,1.7.576,2.822,2.822,0,0,0,2.112-.9,3.059,3.059,0,0,0,.864-2.208Z" transform="translate(2856.394 -8123.24)" fill="#fff"/>
    </g>
  </g>
</svg>
